<?xml version="1.0" encoding="UTF-8"?>
<svg width="69.733mm" height="69.733mm" version="1.1" viewBox="0 0 69.733 69.733" xmlns="http://www.w3.org/2000/svg">
	<g transform="translate(-25.639 -70.728)">
		<g transform="translate(-139.08 62.585)">
			<rect x="165.72" y="9.1438" width="67.733" height="67.733" ry="26.281" style="fill:#fff;paint-order:normal;stroke-linecap:round;stroke-linejoin:round;stroke-width:2;stroke:#000"/>
			<path d="m219.12 69.694-14.96-51.339-4.5333-2.9466-4.5333 2.9466-14.96 51.339z" style="fill:#000001;stroke:#000"/>
			<path d="m195.93 18.808-0.41669 1.0483h8.1882l-0.36833-1.0483z" style="stroke-width:.12737px;stroke:#000"/>
			<path d="m215.38 56.596h4.5159v1.4823h-4.1934" style="stroke-width:.12775px;stroke:#000"/>
			<rect x="219.98" y="53.951" width="4.2072" height="6.8918" ry="2.1036" style="fill:none;paint-order:normal;stroke-linecap:round;stroke-linejoin:round;stroke-width:.26458;stroke:#000"/>
			<rect x="220.63" y="55.233" width="2.8449" height="4.4076" ry="1.4224" style="fill:none;paint-order:normal;stroke-linecap:round;stroke-linejoin:round;stroke-width:.26458;stroke:#000"/>
			<ellipse cx="220.1" cy="63.508" rx=".76131" ry="1.3022" style="fill:none;paint-order:normal;stroke-linecap:round;stroke-linejoin:round;stroke-width:.48138;stroke:#000"/>
			<path d="m219.26 63.488h-1.9634" style="fill:none;stroke-width:.48138;stroke:#000"/>
			<path d="m197.07 20.654-9.3761 32.977 23.921 0.08014-9.5364-33.097z" style="fill:#fff;stroke-width:.5;stroke:#000"/>
			<rect x="197.07" y="20.66" width="5.0514" height="32.966" ry="0" style="fill:none;paint-order:normal;stroke-linecap:round;stroke-linejoin:round;stroke-width:.26458;stroke:#000"/>
			<path d="m196.99 22.577h1.6028" style="fill:none;stroke-width:.26458;stroke:#000"/>
			<path d="m196.99 25.285h1.6028" style="fill:none;stroke-width:.26458;stroke:#000"/>
			<path d="m200.55 22.577h1.6028" style="fill:none;stroke-width:.26458;stroke:#000"/>
			<path d="m200.55 25.285h1.6028" style="fill:none;stroke-width:.26458;stroke:#000"/>
			<path d="m196.99 28.007h1.6028" style="fill:none;stroke-width:.26458;stroke:#000"/>
			<path d="m196.99 30.714h1.6028" style="fill:none;stroke-width:.26458;stroke:#000"/>
			<path d="m200.55 28.007h1.6028" style="fill:none;stroke-width:.26458;stroke:#000"/>
			<path d="m200.55 30.714h1.6028" style="fill:none;stroke-width:.26458;stroke:#000"/>
			<path d="m196.99 33.571h1.6028" style="fill:none;stroke-width:.26458;stroke:#000"/>
			<path d="m196.99 36.278h1.6028" style="fill:none;stroke-width:.26458;stroke:#000"/>
			<path d="m200.55 33.571h1.6028" style="fill:none;stroke-width:.26458;stroke:#000"/>
			<path d="m200.55 36.278h1.6028" style="fill:none;stroke-width:.26458;stroke:#000"/>
			<path d="m196.99 39h1.6028" style="fill:none;stroke-width:.26458;stroke:#000"/>
			<path d="m196.99 41.708h1.6028" style="fill:none;stroke-width:.26458;stroke:#000"/>
			<path d="m200.55 39h1.6028" style="fill:none;stroke-width:.26458;stroke:#000"/>
			<path d="m200.55 41.708h1.6028" style="fill:none;stroke-width:.26458;stroke:#000"/>
			<path d="m196.99 44.659h1.6028" style="fill:none;stroke-width:.26458;stroke:#000"/>
			<path d="m196.99 47.366h1.6028" style="fill:none;stroke-width:.26458;stroke:#000"/>
			<path d="m200.55 44.659h1.6028" style="fill:none;stroke-width:.26458;stroke:#000"/>
			<path d="m200.55 47.366h1.6028" style="fill:none;stroke-width:.26458;stroke:#000"/>
			<path d="m196.99 50.088h1.6028" style="fill:none;stroke-width:.26458;stroke:#000"/>
			<path d="m196.99 52.796h1.6028" style="fill:none;stroke-width:.26458;stroke:#000"/>
			<path d="m200.55 50.088h1.6028" style="fill:none;stroke-width:.26458;stroke:#000"/>
			<path d="m200.55 52.796h1.6028" style="fill:none;stroke-width:.26458;stroke:#000"/>
			<path d="m202.35 53.623 21.485-25.716 1.162 1.0017-20.876 24.803z" style="stroke-width:.12737px;stroke:#000"/>
			<path d="m221.59 35.76-4.047-3.4459-2.1236 4.7281 1.9233 1.723z" style="fill:#fffff3;stroke-width:.26458;stroke:#000"/>
		</g>
	</g>
</svg>
