<?xml version="1.0" encoding="UTF-8" standalone="no"?>
<svg
   xmlns:dc="http://purl.org/dc/elements/1.1/"
   xmlns:cc="http://creativecommons.org/ns#"
   xmlns:rdf="http://www.w3.org/1999/02/22-rdf-syntax-ns#"
   xmlns:svg="http://www.w3.org/2000/svg"
   xmlns="http://www.w3.org/2000/svg"
   xmlns:sodipodi="http://sodipodi.sourceforge.net/DTD/sodipodi-0.dtd"
   xmlns:inkscape="http://www.inkscape.org/namespaces/inkscape"
   version="1.1"
   id="svg29"
   sodipodi:docname="braid_icon.svg"
   width="28.846819"
   height="52.489826"
   inkscape:version="0.92.5 (2060ec1f9f, 2020-04-08)">
  <metadata
     id="metadata35">
    <rdf:RDF>
      <cc:Work
         rdf:about="">
        <dc:format>image/svg+xml</dc:format>
        <dc:type
           rdf:resource="http://purl.org/dc/dcmitype/StillImage" />
        <dc:title></dc:title>
      </cc:Work>
    </rdf:RDF>
  </metadata>
  <defs
     id="defs33" />
  <sodipodi:namedview
     pagecolor="#ffffff"
     bordercolor="#666666"
     borderopacity="1"
     objecttolerance="10"
     gridtolerance="10"
     guidetolerance="10"
     inkscape:pageopacity="0"
     inkscape:pageshadow="2"
     inkscape:window-width="3408"
     inkscape:window-height="2002"
     id="namedview31"
     showgrid="false"
     fit-margin-top="0"
     fit-margin-left="0"
     fit-margin-right="0"
     fit-margin-bottom="0"
     inkscape:zoom="18.88"
     inkscape:cx="6.429915"
     inkscape:cy="22.313826"
     inkscape:window-x="0"
     inkscape:window-y="54"
     inkscape:window-maximized="1"
     inkscape:current-layer="svg29"
     inkscape:pagecheckerboard="true" />
  <g
     id="g4079"
     transform="translate(-0.06958186,-0.078671)">
    <path
       d="M 24.413264,4.530926 C 22.113627,1.888643 18.675835,0.178817 14.816009,0.083471 c -0.113492,-0.0032 -0.227522,-0.0048 -0.341543,-0.0048 -0.114557,0 -0.228053,0.0016 -0.341542,0.0048 C 6.4559655,0.261969 0.26608538,6.451905 0.0873974,14.128999 0.1827725,10.269173 1.8931127,6.831381 4.5348505,4.531199 6.6645276,2.677467 9.3995656,1.562773 12.382314,1.562773 c 0.713461,0 1.412055,0.06447 2.091894,0.186492 3.155435,0.567468 5.900567,2.395528 7.747342,4.973975 1.54464,2.157912 2.461139,4.840162 2.461139,7.747342 0,2.90718 -0.916472,5.588885 -2.461139,7.746797 2.577764,-1.846229 4.405988,-4.591361 4.973429,-7.746797 0.122018,-0.679892 0.187024,-1.378363 0.187024,-2.091892 0,-2.982749 -1.115213,-5.717787 -2.968971,-7.847464 z"
       id="path2"
       inkscape:connector-curvature="0"
       style="fill:#f9f9f9;stroke-width:0.13640408" />
    <path
       d="m 24.464145,24.422351 c 2.642283,-2.299637 4.352108,-5.737429 4.447455,-9.597255 0.0032,-0.113492 0.0048,-0.227522 0.0048,-0.341542 0,-0.114558 -0.0016,-0.228054 -0.0048,-0.341542 C 28.733101,6.465053 22.543166,0.275173 14.866071,0.096485 c 3.859826,0.09537 7.297619,1.805715 9.597801,4.447453 1.853731,2.129677 2.968426,4.864715 2.968426,7.847463 0,0.713462 -0.06447,1.412056 -0.186492,2.091894 -0.567469,3.155436 -2.395529,5.900567 -4.973975,7.747342 -2.157913,1.54464 -4.840163,2.461139 -7.747343,2.461139 -2.90718,0 -5.588884,-0.916471 -7.7467967,-2.461139 1.8462294,2.577765 4.5913617,4.405989 7.7467967,4.97343 0.679893,0.122017 1.378364,0.187023 2.091893,0.187023 2.982748,0 5.717787,-1.115212 7.847463,-2.968971 z"
       id="path4"
       inkscape:connector-curvature="0"
       style="fill:#f9f9f9;stroke-width:0.13640408" />
    <path
       d="m 4.5727194,24.473233 c 2.2996368,2.642283 5.7374286,4.352108 9.5972546,4.447455 0.113492,0.0032 0.227522,0.0048 0.341543,0.0048 0.114557,0 0.228054,-0.0016 0.341542,-0.0048 7.676959,-0.178499 13.866839,-6.368434 14.045527,-14.045529 -0.09538,3.859826 -1.805716,7.297618 -4.447453,9.597801 -2.129678,1.853731 -4.864716,2.968426 -7.847464,2.968426 -0.713461,0 -1.412055,-0.06447 -2.091894,-0.186492 C 11.35634,26.687425 8.6112081,24.859365 6.7644333,22.280919 5.2197934,20.123006 4.3032944,17.440756 4.3032944,14.533576 c 0,-2.90718 0.9164716,-5.588884 2.4611389,-7.746797 -2.5777644,1.84623 -4.4059884,4.591362 -4.9734294,7.746797 -0.1220176,0.679893 -0.1870237,1.378364 -0.1870237,2.091893 0,2.982748 1.1152125,5.717787 2.9689711,7.847463 z"
       id="path6"
       inkscape:connector-curvature="0"
       style="fill:#f9f9f9;stroke-width:0.13640408" />
    <path
       d="m 4.5218383,4.581807 c -2.6422833,2.299637 -4.35210859,5.737429 -4.44745504,9.597255 -0.0031919,0.113492 -0.0048014,0.227522 -0.0048014,0.341542 0,0.114558 0.0015959,0.228054 0.0048014,0.341542 C 0.25288164,22.539105 6.4428173,28.728985 14.119912,28.907673 10.260086,28.812298 6.8222935,27.101958 4.5221113,24.46022 2.6683798,22.330543 1.5536855,19.595505 1.5536855,16.612757 c 0,-0.713462 0.064471,-1.412056 0.1864917,-2.091894 0.5674684,-3.155436 2.3955285,-5.900567 4.9739748,-7.747342 2.1579127,-1.54464 4.840163,-2.461139 7.747343,-2.461139 2.90718,0 5.588884,0.916471 7.746797,2.461139 C 20.362062,4.195756 17.61693,2.367532 14.461495,1.800091 13.781602,1.678074 13.083131,1.613068 12.369602,1.613068 c -2.9827482,0 -5.7177865,1.115212 -7.8474634,2.968971 z"
       id="path8"
       inkscape:connector-curvature="0"
       style="fill:#f9f9f9;stroke-width:0.13640408" />
    <path
       style="fill:#ffffff;stroke-width:0.13640408"
       inkscape:connector-curvature="0"
       id="path27"
       d="m 12.10592,3.657955 c 0,0 2.67352,3.478304 0,7.093012 0.08607,-0.08607 2.468914,-1.224909 4.514975,-0.04256 -0.04297,0 -2.67352,-3.519225 0,-7.01117 0,-0.04297 -2.264307,1.257646 -4.514975,-0.04256 z" />
    <path
       style="fill:#ffffff;stroke-width:0.13640408"
       d="m 12.10592,18.389596 c 0,0 2.67352,3.478304 0,7.093012 0.08607,-0.08607 2.468914,-1.224909 4.514975,-0.04256 -0.04297,0 -2.67352,-3.519225 0,-7.01117 0,-0.04297 -2.264307,1.257646 -4.514975,-0.04256 z"
       id="path37"
       inkscape:connector-curvature="0" />
    <path
       style="fill:#ffffff;stroke-width:0.13640408"
       d="m 10.542457,12.583965 c 0,0 -3.4783045,2.67352 -7.0930126,0 0.086071,0.08607 1.2249087,2.468914 0.042558,4.514975 0,-0.04297 3.5192254,-2.67352 7.0111696,0 0.04297,0 -1.2576455,-2.264308 0.04256,-4.514975 z"
       id="path39"
       inkscape:connector-curvature="0" />
    <path
       style="fill:#ffffff;stroke-width:0.13640408"
       inkscape:connector-curvature="0"
       id="path41"
       d="m 25.546906,12.311157 c 0,0 -3.478304,2.67352 -7.093013,0 0.08607,0.08607 1.224909,2.468914 0.04256,4.514975 0,-0.04297 3.519225,-2.67352 7.011169,0 0.04297,0 -1.257645,-2.264308 0.04256,-4.514975 z" />
    <path
       d="m 24.413264,16.253384 c -2.299637,-2.642283 -5.737429,-4.352109 -9.597255,-4.447455 -0.113492,-0.0032 -0.227522,-0.0048 -0.341543,-0.0048 -0.114557,0 -0.228053,0.0016 -0.341542,0.0048 -7.676959,0.178498 -13.866839,6.368434 -14.045527,14.045528 0.09537,-3.859826 1.805716,-7.297618 4.447453,-9.5978 2.129678,-1.853732 4.864716,-2.968426 7.847464,-2.968426 0.713461,0 1.412055,0.06447 2.091894,0.186492 3.155435,0.567468 5.900567,2.395528 7.747342,4.973975 1.54464,2.157912 2.461139,4.840162 2.461139,7.747342 0,2.90718 -0.916472,5.588885 -2.461139,7.746797 2.577764,-1.846229 4.405988,-4.591361 4.973429,-7.746797 0.122018,-0.679892 0.187024,-1.378363 0.187024,-2.091892 0,-2.982749 -1.115213,-5.717787 -2.968971,-7.847464 z"
       id="path2-6"
       inkscape:connector-curvature="0"
       style="fill:#f9f9f9;stroke-width:0.13640408" />
    <path
       d="m 24.464145,36.144809 c 2.642283,-2.299637 4.352108,-5.737429 4.447455,-9.597255 0.0032,-0.113492 0.0048,-0.227522 0.0048,-0.341542 0,-0.114558 -0.0016,-0.228054 -0.0048,-0.341542 -0.178499,-7.676959 -6.368434,-13.866839 -14.045529,-14.045527 3.859826,0.09537 7.297619,1.805715 9.597801,4.447453 1.853731,2.129677 2.968426,4.864715 2.968426,7.847463 0,0.713462 -0.06447,1.412056 -0.186492,2.091894 -0.567469,3.155436 -2.395529,5.900567 -4.973975,7.747342 -2.157913,1.54464 -4.840163,2.461139 -7.747343,2.461139 -2.90718,0 -5.588884,-0.916471 -7.746797,-2.461139 1.84623,2.577765 4.591362,4.405989 7.746797,4.97343 0.679893,0.122017 1.378364,0.187023 2.091893,0.187023 2.982748,0 5.717787,-1.115212 7.847463,-2.968971 z"
       id="path4-7"
       inkscape:connector-curvature="0"
       style="fill:#f9f9f9;stroke-width:0.13640408" />
    <path
       d="m 4.572719,36.195691 c 2.299637,2.642283 5.737429,4.352108 9.597255,4.447455 0.113492,0.0032 0.227522,0.0048 0.341543,0.0048 0.114557,0 0.228054,-0.0016 0.341542,-0.0048 7.676959,-0.178499 13.866839,-6.368434 14.045527,-14.045529 -0.09538,3.859826 -1.805716,7.297618 -4.447453,9.597801 -2.129678,1.853731 -4.864716,2.968426 -7.847464,2.968426 -0.713461,0 -1.412055,-0.06447 -2.091894,-0.186492 C 11.35634,38.409883 8.611208,36.581823 6.764433,34.003377 5.219793,31.845464 4.303294,29.163214 4.303294,26.256034 c 0,-2.90718 0.916472,-5.588884 2.461139,-7.746797 -2.577764,1.84623 -4.405988,4.591362 -4.973429,7.746797 -0.122018,0.679893 -0.187024,1.378364 -0.187024,2.091893 0,2.982748 1.115213,5.717787 2.968971,7.847463 z"
       id="path6-5"
       inkscape:connector-curvature="0"
       style="fill:#f9f9f9;stroke-width:0.13640408" />
    <path
       d="m 4.521838,16.304265 c -2.642283,2.299637 -4.352108,5.737429 -4.447455,9.597255 -0.0032,0.113492 -0.0048,0.227522 -0.0048,0.341542 0,0.114558 0.0016,0.228054 0.0048,0.341542 0.178499,7.676959 6.368434,13.866839 14.045529,14.045527 C 10.260086,40.534761 6.822294,38.824416 4.522111,36.182678 2.66838,34.053001 1.553686,31.317963 1.553686,28.335215 c 0,-0.713462 0.06447,-1.412056 0.186491,-2.091894 0.567469,-3.155436 2.395529,-5.900567 4.973975,-7.747342 2.157913,-1.54464 4.840163,-2.461139 7.747343,-2.461139 2.90718,0 5.588884,0.916471 7.746797,2.461139 -1.84623,-2.577764 -4.591362,-4.405989 -7.746797,-4.97343 -0.679893,-0.122017 -1.378364,-0.187023 -2.091893,-0.187023 -2.982748,0 -5.717787,1.115212 -7.847463,2.968971 z"
       id="path8-3"
       inkscape:connector-curvature="0"
       style="fill:#f9f9f9;stroke-width:0.13640408" />
    <path
       style="fill:#ffffff;stroke-width:0.13640408"
       inkscape:connector-curvature="0"
       id="path27-2"
       d="m 12.10592,15.380413 c 0,0 2.67352,3.478304 0,7.093012 0.08607,-0.08607 2.468914,-1.224909 4.514975,-0.04256 -0.04297,0 -2.67352,-3.519225 0,-7.01117 0,-0.04297 -2.264307,1.257646 -4.514975,-0.04256 z" />
    <path
       style="fill:#ffffff;stroke-width:0.13640408"
       d="m 12.10592,30.112054 c 0,0 2.67352,3.478304 0,7.093012 0.08607,-0.08607 2.468914,-1.224909 4.514975,-0.04256 -0.04297,0 -2.67352,-3.519225 0,-7.01117 0,-0.04297 -2.264307,1.257646 -4.514975,-0.04256 z"
       id="path37-1"
       inkscape:connector-curvature="0" />
    <path
       style="fill:#ffffff;stroke-width:0.13640408"
       d="m 10.542457,24.306423 c 0,0 -3.478305,2.67352 -7.093013,0 0.08607,0.08607 1.224909,2.468914 0.04256,4.514975 0,-0.04297 3.519226,-2.67352 7.01117,0 0.04297,0 -1.257645,-2.264308 0.04256,-4.514975 z"
       id="path39-7"
       inkscape:connector-curvature="0" />
    <path
       style="fill:#ffffff;stroke-width:0.13640408"
       inkscape:connector-curvature="0"
       id="path41-9"
       d="m 25.546906,24.033615 c 0,0 -3.478304,2.67352 -7.093013,0 0.08607,0.08607 1.224909,2.468914 0.04256,4.514975 0,-0.04297 3.519225,-2.67352 7.011169,0 0.04297,0 -1.257645,-2.264308 0.04256,-4.514975 z" />
    <circle
       cy="14.570282"
       cx="14.424789"
       id="circle11"
       class="largeCircle"
       r="3.4101019"
       style="fill:#ff0000;stroke-width:0.13640408" />
    <path
       d="m 14.184718,10.573642 c -0.0266,0 -0.05374,0 -0.08157,5.32e-4 -0.02715,5.32e-4 -0.05429,0.0011 -0.08211,0.0016 -0.02715,5.33e-4 -0.05484,0.0016 -0.08266,0.0027 -0.02715,5.32e-4 -0.05484,0.0021 -0.08266,0.0032 -0.499239,0.0682 -0.967105,0.227795 -1.391322,0.459682 -0.421489,0.231887 -0.797964,0.536068 -1.110329,0.896175 -0.313729,0.358743 -0.563349,0.773411 -0.736582,1.223544 -0.171869,0.450134 -0.265988,0.937097 -0.265988,1.445884 0,0.386023 0.05333,0.762499 0.1555,1.121241 0.101758,0.357379 0.250984,0.697025 0.444678,1.010755 0.19233,0.312365 0.428309,0.598814 0.702481,0.851161 0.274172,0.250984 0.586537,0.467866 0.930276,0.642463 -0.03301,-0.10012 -0.06179,-0.201878 -0.08689,-0.306909 -0.0251,-0.10394 -0.04583,-0.210062 -0.06234,-0.317821 -0.01705,-0.108169 -0.02933,-0.218247 -0.03778,-0.330098 -0.0085,-0.111852 -0.01282,-0.225067 -0.01282,-0.339646 0,-0.321914 0.03888,-0.626095 0.116217,-0.91118 0.07775,-0.285084 0.193693,-0.551072 0.34783,-0.797963 0.154137,-0.246892 0.346466,-0.474687 0.576989,-0.682021 0.230523,-0.207334 0.499239,-0.395572 0.804784,-0.563349 0.23598,-0.133266 0.432401,-0.26326 0.594722,-0.395572 0.156865,-0.128901 0.289177,-0.272808 0.395572,-0.437857 0.0918,-0.13463 0.140496,-0.259167 0.186874,-0.387387 l 0.01814,-0.06807 c 0.04474,-0.174597 0.06452,-0.366927 0.06452,-0.58381 0,-0.238707 -0.03042,-0.454225 -0.08894,-0.642463 -0.05851,-0.188226 -0.14595,-0.349183 -0.257801,-0.480131 -0.111852,-0.13163 -0.24962,-0.233251 -0.410577,-0.301453 -0.160956,-0.06875 -0.345102,-0.104486 -0.549708,-0.104486"
       id="path13"
       inkscape:connector-curvature="0"
       style="fill:#ffffff;stroke-width:0.13640408" />
    <path
       style="fill:#ffffff;stroke-width:0.13640408"
       d="m 12.58093,18.24336 0.402723,-0.683385 c 0,0 -0.965741,-2.237027 1.432243,-3.519225 0.710665,-0.440585 0.881171,-0.912543 0.987566,-1.269922 -0.267094,0.78567 -0.997916,1.125364 -1.370683,1.341593 -0.295216,0.196811 -1.106204,0.640197 -1.510653,1.819167 -0.179703,0.523836 -0.209066,1.61083 0.0588,2.311772 z"
       id="path15"
       inkscape:connector-curvature="0" />
    <path
       d="m 14.663497,18.53964 h 0.08157 c 0.02715,0 0.05429,-0.0014 0.08212,-0.0016 0.02714,0 0.05483,-0.0016 0.08266,-0.0026 0.02714,0 0.05483,-0.0022 0.08252,-0.0032 0.499239,-0.0682 0.967105,-0.227795 1.391321,-0.459682 0.424217,-0.231887 0.797965,-0.536068 1.11033,-0.896175 0.313729,-0.358743 0.563349,-0.773411 0.736582,-1.222181 0.171869,-0.450133 0.265988,-0.937096 0.265988,-1.445883 0,-0.386023 -0.05333,-0.762499 -0.155501,-1.121242 -0.101757,-0.358742 -0.250983,-0.697024 -0.444677,-1.010754 -0.19233,-0.312365 -0.428309,-0.600178 -0.702481,-0.851161 -0.274172,-0.250984 -0.586538,-0.467866 -0.930276,-0.642463 0.03301,0.10012 0.06179,0.201878 0.08689,0.306909 0.0251,0.10394 0.04583,0.210062 0.06234,0.317821 0.01705,0.108169 0.02933,0.218247 0.03778,0.330098 0.0085,0.111852 0.01282,0.225067 0.01282,0.339646 0,0.321914 -0.03887,0.626095 -0.116216,0.91118 -0.07775,0.285084 -0.193694,0.551072 -0.34783,0.797964 -0.154137,0.246891 -0.346467,0.474686 -0.57699,0.68202 -0.230522,0.207334 -0.499239,0.395572 -0.804784,0.563349 -0.235979,0.133267 -0.4324,0.26326 -0.594721,0.395572 -0.156865,0.128902 -0.289177,0.272808 -0.395572,0.437857 -0.0918,0.134631 -0.140497,0.259167 -0.186874,0.387387 l -0.01814,0.06807 c -0.04474,0.174597 -0.06452,0.366927 -0.06452,0.58381 0,0.238706 0.03042,0.454225 0.08893,0.642463 0.05852,0.188237 0.145953,0.349194 0.257804,0.480142 0.111851,0.13163 0.249619,0.233251 0.410576,0.301453 0.160957,0.06875 0.345102,0.104486 0.549709,0.104486"
       id="path18"
       inkscape:connector-curvature="0"
       style="fill:#ffffff;stroke-width:0.13640408" />
    <path
       style="fill:#ffffff;stroke-width:0.13640408"
       d="m 16.253706,10.902173 -0.402178,0.683705 c 0,0 0.967525,2.236256 -1.429436,3.520367 -0.710314,0.441152 -0.880442,0.913246 -0.986553,1.270709 0.266468,-0.785883 0.997018,-1.126159 1.369613,-1.342686 0.295059,-0.197046 1.105694,-0.641079 1.509202,-1.820371 0.179286,-0.523979 0.207781,-1.610996 -0.06065,-2.311724 z"
       id="path20"
       inkscape:connector-curvature="0" />
    <g
       transform="translate(0,23.643009)"
       id="g3840-3-3">
      <path
         style="fill:#f9f9f9;stroke-width:0.13640408"
         inkscape:connector-curvature="0"
         id="path2-6-6"
         d="M 24.413264,4.5309259 C 22.113627,1.8886426 18.675835,0.17881726 14.816009,0.08347081 c -0.113492,-0.0031919 -0.227522,-0.0048014 -0.341543,-0.0048014 -0.114557,0 -0.228053,0.0015959 -0.341542,0.0048014 C 6.4559655,0.26196919 0.26608538,6.4519048 0.0873974,14.128999 0.1827725,10.269173 1.8931127,6.831381 4.5348505,4.5311988 6.6645276,2.6774673 9.3995656,1.5627731 12.382314,1.5627731 c 0.713461,0 1.412055,0.064471 2.091894,0.1864916 3.155435,0.5674684 5.900567,2.3955286 7.747342,4.9739749 1.54464,2.1579126 2.461139,4.8401624 2.461139,7.7473424 0,2.90718 -0.916472,5.588885 -2.461139,7.746797 2.577764,-1.846229 4.405988,-4.591361 4.973429,-7.746797 0.122018,-0.679892 0.187024,-1.378363 0.187024,-2.091892 0,-2.9827487 -1.115213,-5.717787 -2.968971,-7.8474638 z" />
      <path
         style="fill:#f9f9f9;stroke-width:0.13640408"
         inkscape:connector-curvature="0"
         id="path4-7-0"
         d="m 24.464145,24.422351 c 2.642283,-2.299637 4.352108,-5.737429 4.447455,-9.597255 0.0032,-0.113492 0.0048,-0.227522 0.0048,-0.341542 0,-0.114558 -0.0016,-0.228054 -0.0048,-0.341542 C 28.733101,6.465053 22.543166,0.27517293 14.866071,0.09648495 c 3.859826,0.0953751 7.297619,1.80571535 9.597801,4.44745305 1.853731,2.1296772 2.968426,4.8647151 2.968426,7.847463 0,0.713462 -0.06447,1.412056 -0.186492,2.091894 -0.567469,3.155436 -2.395529,5.900567 -4.973975,7.747342 -2.157913,1.54464 -4.840163,2.461139 -7.747343,2.461139 -2.90718,0 -5.588884,-0.916471 -7.7467967,-2.461139 1.8462294,2.577765 4.5913617,4.405989 7.7467967,4.97343 0.679893,0.122017 1.378364,0.187023 2.091893,0.187023 2.982748,0 5.717787,-1.115212 7.847463,-2.968971 z" />
      <path
         style="fill:#f9f9f9;stroke-width:0.13640408"
         inkscape:connector-curvature="0"
         id="path6-5-6"
         d="m 4.5727194,24.473233 c 2.2996368,2.642283 5.7374286,4.352108 9.5972546,4.447455 0.113492,0.0032 0.227522,0.0048 0.341543,0.0048 0.114557,0 0.228054,-0.0016 0.341542,-0.0048 7.676959,-0.178499 13.866839,-6.368434 14.045527,-14.045529 -0.09538,3.859826 -1.805716,7.297618 -4.447453,9.597801 -2.129678,1.853731 -4.864716,2.968426 -7.847464,2.968426 -0.713461,0 -1.412055,-0.06447 -2.091894,-0.186492 C 11.35634,26.687425 8.6112081,24.859365 6.7644333,22.280919 5.2197934,20.123006 4.3032944,17.440756 4.3032944,14.533576 c 0,-2.90718 0.9164716,-5.5888841 2.4611389,-7.7467967 -2.5777644,1.8462293 -4.4059884,4.5913617 -4.9734294,7.7467967 -0.1220176,0.679893 -0.1870237,1.378364 -0.1870237,2.091893 0,2.982748 1.1152125,5.717787 2.9689711,7.847463 z" />
      <path
         style="fill:#f9f9f9;stroke-width:0.13640408"
         inkscape:connector-curvature="0"
         id="path8-3-2"
         d="m 4.5218383,4.581807 c -2.6422833,2.2996367 -4.35210859,5.737429 -4.44745504,9.597255 -0.0031919,0.113492 -0.0048014,0.227522 -0.0048014,0.341542 0,0.114558 0.0015959,0.228054 0.0048014,0.341542 C 0.25288164,22.539105 6.4428173,28.728985 14.119912,28.907673 10.260086,28.812298 6.8222935,27.101958 4.5221113,24.46022 2.6683798,22.330543 1.5536855,19.595505 1.5536855,16.612757 c 0,-0.713462 0.064471,-1.412056 0.1864917,-2.091894 C 2.3076456,11.365427 4.1357057,8.6202956 6.714152,6.7735208 8.8720647,5.2288809 11.554315,4.312382 14.461495,4.312382 c 2.90718,0 5.588884,0.9164715 7.746797,2.4611388 C 20.362062,4.1957565 17.61693,2.3675324 14.461495,1.8000914 13.781602,1.6780739 13.083131,1.6130678 12.369602,1.6130678 c -2.9827482,0 -5.7177865,1.1152125 -7.8474634,2.9689711 z" />
      <circle
         style="fill:#ff0000;stroke-width:0.13640408"
         r="3.4101019"
         class="largeCircle"
         id="circle11-5-6"
         cx="14.424789"
         cy="14.570282" />
      <path
         style="fill:#ffffff;stroke-width:0.13640408"
         inkscape:connector-curvature="0"
         id="path13-6-1"
         d="m 14.184718,10.573642 c -0.0266,0 -0.05374,0 -0.08157,5.32e-4 -0.02715,5.32e-4 -0.05429,0.0011 -0.08211,0.0016 -0.02715,5.33e-4 -0.05484,0.0016 -0.08266,0.0027 -0.02715,5.32e-4 -0.05484,0.0021 -0.08266,0.0032 -0.499239,0.0682 -0.967105,0.227795 -1.391322,0.459682 -0.421489,0.231887 -0.797964,0.536068 -1.110329,0.896175 -0.313729,0.358743 -0.563349,0.773411 -0.736582,1.223544 -0.171869,0.450134 -0.265988,0.937097 -0.265988,1.445884 0,0.386023 0.05333,0.762499 0.1555,1.121241 0.101758,0.357379 0.250984,0.697025 0.444678,1.010755 0.19233,0.312365 0.428309,0.598814 0.702481,0.851161 0.274172,0.250984 0.586537,0.467866 0.930276,0.642463 -0.03301,-0.10012 -0.06179,-0.201878 -0.08689,-0.306909 -0.0251,-0.10394 -0.04583,-0.210062 -0.06234,-0.317821 -0.01705,-0.108169 -0.02933,-0.218247 -0.03778,-0.330098 -0.0085,-0.111852 -0.01282,-0.225067 -0.01282,-0.339646 0,-0.321914 0.03888,-0.626095 0.116217,-0.91118 0.07775,-0.285084 0.193693,-0.551072 0.34783,-0.797963 0.154137,-0.246892 0.346466,-0.474687 0.576989,-0.682021 0.230523,-0.207334 0.499239,-0.395572 0.804784,-0.563349 0.23598,-0.133266 0.432401,-0.26326 0.594722,-0.395572 0.156865,-0.128901 0.289177,-0.272808 0.395572,-0.437857 0.0918,-0.13463 0.140496,-0.259167 0.186874,-0.387387 l 0.01814,-0.06807 c 0.04474,-0.174597 0.06452,-0.366927 0.06452,-0.58381 0,-0.238707 -0.03042,-0.454225 -0.08894,-0.642463 -0.05851,-0.188226 -0.14595,-0.349183 -0.257801,-0.480131 -0.111852,-0.13163 -0.24962,-0.233251 -0.410577,-0.301453 -0.160956,-0.06875 -0.345102,-0.104486 -0.549708,-0.104486" />
      <path
         d="m 12.10592,3.6579549 c 0,0 2.67352,3.478304 0,7.0930121 0.08607,-0.08607 2.468914,-1.2249087 4.514975,-0.04256 -0.04297,0 -2.67352,-3.5192254 0,-7.0111698 0,-0.042967 -2.264307,1.2576457 -4.514975,-0.042558 z"
         id="path27-2-8"
         inkscape:connector-curvature="0"
         style="fill:#ffffff;stroke-width:0.13640408" />
      <path
         inkscape:connector-curvature="0"
         id="path15-9-7"
         d="m 12.58093,18.24336 0.402723,-0.683385 c 0,0 -0.965741,-2.237027 1.432243,-3.519225 0.710665,-0.440585 0.881171,-0.912543 0.987566,-1.269922 -0.267094,0.78567 -0.997916,1.125364 -1.370683,1.341593 -0.295216,0.196811 -1.106204,0.640197 -1.510653,1.819167 -0.179703,0.523836 -0.209066,1.61083 0.0588,2.311772 z"
         style="fill:#ffffff;stroke-width:0.13640408" />
      <path
         inkscape:connector-curvature="0"
         id="path37-1-9"
         d="m 12.10592,18.389596 c 0,0 2.67352,3.478304 0,7.093012 0.08607,-0.08607 2.468914,-1.224909 4.514975,-0.04256 -0.04297,0 -2.67352,-3.519225 0,-7.01117 0,-0.04297 -2.264307,1.257646 -4.514975,-0.04256 z"
         style="fill:#ffffff;stroke-width:0.13640408" />
      <path
         style="fill:#ffffff;stroke-width:0.13640408"
         inkscape:connector-curvature="0"
         id="path18-2-2"
         d="m 14.663497,18.53964 h 0.08157 c 0.02715,0 0.05429,-0.0014 0.08212,-0.0016 0.02714,0 0.05483,-0.0016 0.08266,-0.0026 0.02714,0 0.05483,-0.0022 0.08252,-0.0032 0.499239,-0.0682 0.967105,-0.227795 1.391321,-0.459682 0.424217,-0.231887 0.797965,-0.536068 1.11033,-0.896175 0.313729,-0.358743 0.563349,-0.773411 0.736582,-1.222181 0.171869,-0.450133 0.265988,-0.937096 0.265988,-1.445883 0,-0.386023 -0.05333,-0.762499 -0.155501,-1.121242 -0.101757,-0.358742 -0.250983,-0.697024 -0.444677,-1.010754 -0.19233,-0.312365 -0.428309,-0.600178 -0.702481,-0.851161 -0.274172,-0.250984 -0.586538,-0.467866 -0.930276,-0.642463 0.03301,0.10012 0.06179,0.201878 0.08689,0.306909 0.0251,0.10394 0.04583,0.210062 0.06234,0.317821 0.01705,0.108169 0.02933,0.218247 0.03778,0.330098 0.0085,0.111852 0.01282,0.225067 0.01282,0.339646 0,0.321914 -0.03887,0.626095 -0.116216,0.91118 -0.07775,0.285084 -0.193694,0.551072 -0.34783,0.797964 -0.154137,0.246891 -0.346467,0.474686 -0.57699,0.68202 -0.230522,0.207334 -0.499239,0.395572 -0.804784,0.563349 -0.235979,0.133267 -0.4324,0.26326 -0.594721,0.395572 -0.156865,0.128902 -0.289177,0.272808 -0.395572,0.437857 -0.0918,0.134631 -0.140497,0.259167 -0.186874,0.387387 l -0.01814,0.06807 c -0.04474,0.174597 -0.06452,0.366927 -0.06452,0.58381 0,0.238706 0.03042,0.454225 0.08893,0.642463 0.05852,0.188237 0.145953,0.349194 0.257804,0.480142 0.111851,0.13163 0.249619,0.233251 0.410576,0.301453 0.160957,0.06875 0.345102,0.104486 0.549709,0.104486" />
      <path
         inkscape:connector-curvature="0"
         id="path39-7-0"
         d="m 10.542457,12.583965 c 0,0 -3.4783045,2.67352 -7.0930126,0 0.086071,0.08607 1.2249087,2.468914 0.042558,4.514975 0,-0.04297 3.5192254,-2.67352 7.0111696,0 0.04297,0 -1.2576455,-2.264308 0.04256,-4.514975 z"
         style="fill:#ffffff;stroke-width:0.13640408" />
      <path
         inkscape:connector-curvature="0"
         id="path20-0-2"
         d="m 16.253706,10.902173 -0.402178,0.683705 c 0,0 0.967525,2.236256 -1.429436,3.520367 -0.710314,0.441152 -0.880442,0.913246 -0.986553,1.270709 0.266468,-0.785883 0.997018,-1.126159 1.369613,-1.342686 0.295059,-0.197046 1.105694,-0.641079 1.509202,-1.820371 0.179286,-0.523979 0.207781,-1.610996 -0.06065,-2.311724 z"
         style="fill:#ffffff;stroke-width:0.13640408" />
      <path
         d="m 25.546906,12.311157 c 0,0 -3.478304,2.67352 -7.093013,0 0.08607,0.08607 1.224909,2.468914 0.04256,4.514975 0,-0.04297 3.519225,-2.67352 7.011169,0 0.04297,0 -1.257645,-2.264308 0.04256,-4.514975 z"
         id="path41-9-3"
         inkscape:connector-curvature="0"
         style="fill:#ffffff;stroke-width:0.13640408" />
    </g>
    <circle
       cy="26.29274"
       cx="14.424789"
       id="circle11-5"
       class="largeCircle"
       r="3.4101019"
       style="fill:#ff0000;stroke-width:0.13640408" />
    <path
       d="m 14.184718,22.2961 c -0.0266,0 -0.05374,0 -0.08157,5.32e-4 -0.02715,5.32e-4 -0.05429,0.0011 -0.08211,0.0016 -0.02715,5.33e-4 -0.05484,0.0016 -0.08266,0.0027 -0.02715,5.32e-4 -0.05484,0.0021 -0.08266,0.0032 -0.499239,0.0682 -0.967105,0.227795 -1.391322,0.459682 -0.421489,0.231887 -0.797964,0.536068 -1.110329,0.896175 -0.313729,0.358743 -0.563349,0.773411 -0.736582,1.223544 -0.171869,0.450134 -0.265988,0.937097 -0.265988,1.445884 0,0.386023 0.05333,0.762499 0.1555,1.121241 0.101758,0.357379 0.250984,0.697025 0.444678,1.010755 0.19233,0.312365 0.428309,0.598814 0.702481,0.851161 0.274172,0.250984 0.586537,0.467866 0.930276,0.642463 -0.03301,-0.10012 -0.06179,-0.201878 -0.08689,-0.306909 -0.0251,-0.10394 -0.04583,-0.210062 -0.06234,-0.317821 -0.01705,-0.108169 -0.02933,-0.218247 -0.03778,-0.330098 -0.0085,-0.111852 -0.01282,-0.225067 -0.01282,-0.339646 0,-0.321914 0.03888,-0.626095 0.116217,-0.91118 0.07775,-0.285084 0.193693,-0.551072 0.34783,-0.797963 0.154137,-0.246892 0.346466,-0.474687 0.576989,-0.682021 0.230523,-0.207334 0.499239,-0.395572 0.804784,-0.563349 0.23598,-0.133266 0.432401,-0.26326 0.594722,-0.395572 0.156865,-0.128901 0.289177,-0.272808 0.395572,-0.437857 0.0918,-0.13463 0.140496,-0.259167 0.186874,-0.387387 l 0.01814,-0.06807 c 0.04474,-0.174597 0.06452,-0.366927 0.06452,-0.58381 0,-0.238707 -0.03042,-0.454225 -0.08894,-0.642463 -0.05851,-0.188226 -0.14595,-0.349183 -0.257801,-0.480131 -0.111852,-0.13163 -0.24962,-0.233251 -0.410577,-0.301453 -0.160956,-0.06875 -0.345102,-0.104486 -0.549708,-0.104486"
       id="path13-6"
       inkscape:connector-curvature="0"
       style="fill:#ffffff;stroke-width:0.13640408" />
    <path
       style="fill:#ffffff;stroke-width:0.13640408"
       d="m 12.58093,29.965818 0.402723,-0.683385 c 0,0 -0.965741,-2.237027 1.432243,-3.519225 0.710665,-0.440585 0.881171,-0.912543 0.987566,-1.269922 -0.267094,0.78567 -0.997916,1.125364 -1.370683,1.341593 -0.295216,0.196811 -1.106204,0.640197 -1.510653,1.819167 -0.179703,0.523836 -0.209066,1.61083 0.0588,2.311772 z"
       id="path15-9"
       inkscape:connector-curvature="0" />
    <path
       d="m 14.663497,30.262098 h 0.08157 c 0.02715,0 0.05429,-0.0014 0.08212,-0.0016 0.02714,0 0.05483,-0.0016 0.08266,-0.0026 0.02714,0 0.05483,-0.0022 0.08252,-0.0032 0.499239,-0.0682 0.967105,-0.227795 1.391321,-0.459682 0.424217,-0.231887 0.797965,-0.536068 1.11033,-0.896175 0.313729,-0.358743 0.563349,-0.773411 0.736582,-1.222181 0.171869,-0.450133 0.265988,-0.937096 0.265988,-1.445883 0,-0.386023 -0.05333,-0.762499 -0.155501,-1.121242 -0.101757,-0.358742 -0.250983,-0.697024 -0.444677,-1.010754 -0.19233,-0.312365 -0.428309,-0.600178 -0.702481,-0.851161 -0.274172,-0.250984 -0.586538,-0.467866 -0.930276,-0.642463 0.03301,0.10012 0.06179,0.201878 0.08689,0.306909 0.0251,0.10394 0.04583,0.210062 0.06234,0.317821 0.01705,0.108169 0.02933,0.218247 0.03778,0.330098 0.0085,0.111852 0.01282,0.225067 0.01282,0.339646 0,0.321914 -0.03887,0.626095 -0.116216,0.91118 -0.07775,0.285084 -0.193694,0.551072 -0.34783,0.797964 -0.154137,0.246891 -0.346467,0.474686 -0.57699,0.68202 -0.230522,0.207334 -0.499239,0.395572 -0.804784,0.563349 -0.235979,0.133267 -0.4324,0.26326 -0.594721,0.395572 -0.156865,0.128902 -0.289177,0.272808 -0.395572,0.437857 -0.0918,0.134631 -0.140497,0.259167 -0.186874,0.387387 l -0.01814,0.06807 c -0.04474,0.174597 -0.06452,0.366927 -0.06452,0.58381 0,0.238706 0.03042,0.454225 0.08893,0.642463 0.05852,0.188237 0.145953,0.349194 0.257804,0.480142 0.111851,0.13163 0.249619,0.233251 0.410576,0.301453 0.160957,0.06875 0.345102,0.104486 0.549709,0.104486"
       id="path18-2"
       inkscape:connector-curvature="0"
       style="fill:#ffffff;stroke-width:0.13640408" />
    <path
       style="fill:#ffffff;stroke-width:0.13640408"
       d="m 16.253706,22.624631 -0.402178,0.683705 c 0,0 0.967525,2.236256 -1.429436,3.520367 -0.710314,0.441152 -0.880442,0.913246 -0.986553,1.270709 0.266468,-0.785883 0.997018,-1.126159 1.369613,-1.342686 0.295059,-0.197046 1.105694,-0.641079 1.509202,-1.820371 0.179286,-0.523979 0.207781,-1.610996 -0.06065,-2.311724 z"
       id="path20-0"
       inkscape:connector-curvature="0" />
  </g>
</svg>
