<?xml version="1.0" encoding="UTF-8"?>
<svg width="69.733mm" height="69.733mm" version="1.1" viewBox="0 0 69.733 69.733" xmlns="http://www.w3.org/2000/svg">
	<g transform="translate(-35.762 -94.036)">
		<g transform="translate(-51.646 85.892)">
			<rect x="88.409" y="9.1438" width="67.733" height="67.733" ry="26.281" style="fill:#fff;paint-order:normal;stroke-linecap:round;stroke-linejoin:round;stroke-width:2;stroke:#000"/>
			<rect x="103.95" y="28.611" width="36.438" height="35.88" ry="1.9553" style="fill:none;paint-order:normal;stroke-linecap:round;stroke-linejoin:round;stroke-width:.26458;stroke:#000"/>
			<rect x="104.96" y="29.333" width="34.436" height="34.436" ry="1.9346" style="fill:none;paint-order:normal;stroke-linecap:round;stroke-linejoin:round;stroke-width:.26458;stroke:#000"/>
			<g transform="matrix(.0040084 0 0 .005831 145.37 16.793)" style="fill:none;stroke-width:206.84;stroke:#000">
				<path d="m195.88-66.505-127.13-121.48-120.54 121.48h-6.1e-5l-127.13-121.48-120.54 121.48-127.13-121.48-120.54 121.48h-6e-5l-127.13-121.48-120.54 121.48-127.13-121.48-120.54 121.48h-1e-4l-127.13-121.48-120.54 121.48-127.13-121.48-120.54 121.48-127.13-121.48-120.54 121.48-127.13-121.48-120.54 121.48-127.13-121.48-120.54 121.48-127.13-121.48-120.54 121.48h-1e-4l-127.13-121.48-120.54 121.48-127.13-121.48-120.54 121.48-127.13-121.48-120.54 121.48-127.13-121.48-120.54 121.48-127.13-121.48-120.54 121.48-127.13-121.48-120.54 121.48h-1e-4l-127.13-121.48-120.54 121.48-127.13-121.48-120.54 121.48-127.13-121.48-120.54 121.48-127.13-121.48-120.54 121.48-127.13-121.48-120.54 121.48-127.13-121.48-120.54 121.48h-1e-4l-127.13-121.48-120.54 121.48-127.13-121.48-120.54 121.48h-3e-4l-127.13-121.48-120.54 121.48-127.13-121.48-120.54 121.48-127.13-121.48-120.54 121.48-127.13-121.48-120.54 121.48-127.13-121.48-120.54 121.48-127.13-121.48-120.54 121.48-127.13-121.48-120.54 121.48-127.13-121.48-120.54 121.48-127.13-121.48-120.54 121.48-127.13-121.48-120.54 121.48h-2e-4l-127.13-121.48-120.54 121.48-127.13-121.48-120.54 121.48-127.13-121.48-120.54 121.48-127.13-121.48-120.54 121.48-127.13-121.48-120.54 121.48-127.13-121.48-120.54 121.48h-1e-4l-127.13-121.48-120.54 121.48-127.13-121.48-120.54 121.48-127.13-121.48-120.54 121.48-127.13-121.48-120.54 121.48-127.13-121.48-120.54 121.48-127.13-121.48-120.54 121.48v-3e-5l-127.13-121.48-120.54 121.48-197.26-122.81-22.473 1117.5s112.36 149.34 119.86 339.87 329.6 7708.9 329.6 7708.9-44.946 133.89-142.33 190.53c-52.437 102.99-87.4 211.82-87.4 211.82v-1e-4l120.54 121.48 127.13-121.48 120.54 121.48 127.13-121.48 120.54 121.48 127.13-121.48 120.54 121.48 127.13-121.48 120.54 121.48 127.13-121.48 120.54 121.48 127.13-121.48 120.54 121.48 127.13-121.48h1e-4l120.54 121.48 127.13-121.48 120.54 121.48 127.13-121.48 120.54 121.48 127.13-121.48 120.54 121.48 127.13-121.48 120.54 121.48 127.13-121.48 120.54 121.48 127.13-121.48h2e-4l120.54 121.48 127.13-121.48 120.54 121.48 127.13-121.48 120.54 121.48 127.13-121.48 120.54 121.48 127.13-121.48 120.54 121.48 127.13-121.48 120.54 121.48 127.13-121.48 120.54 121.48 127.13-121.48 120.54 121.48 127.13-121.48 120.54 121.48 127.13-121.48 120.54 121.48 127.13-121.48h3e-4l120.54 121.48 127.13-121.48 120.54 121.48 127.13-121.48h1e-4l120.54 121.48 127.13-121.48 120.54 121.48 127.13-121.48 120.54 121.48 127.13-121.48 120.54 121.48 127.13-121.48 120.54 121.48 127.13-121.48 120.54 121.48 127.13-121.48h1e-4l120.54 121.48 127.13-121.48 120.54 121.48 127.13-121.48 120.54 121.48 127.13-121.48 120.54 121.48 127.13-121.48 120.54 121.48 127.13-121.48 120.54 121.48 127.13-121.48h1e-4l120.54 121.48 127.13-121.48-1e-4 1e-4 120.54 121.48 127.13-121.48 120.54 121.48 127.13-121.48 120.54 121.48 127.13-121.48 120.54 121.48 127.13-121.48 120.54 121.48 127.13-121.48h1e-4l120.54 121.48 127.13-121.48 120.54 121.48 127.13-121.48h7e-5l120.54 121.48 127.13-121.48 120.54 121.48 127.13-121.48h7.2e-5l120.54 121.48 127.13-121.48h1.4e-4l4.8931-216.97s0-25.748-97.383-77.244c-59.928-82.394-82.401-329.57-82.401-329.57l104.87-5551.2s52.437-381.07 104.87-839.38c52.437-458.31 142.33-1138.1 142.33-1138.1s59.928-298.68 52.437-417.12c-7.4911-118.44-37.455-1014.5-37.455-1014.5l-192.17 138.26z" style="fill:none;stroke-width:206.84;stroke:#000"/>
			</g>
			<path d="m109.33 35.129c-1.0439 0-2.9709 0.33063-2.9709 0.33063s0.22375 3.1463 0.27969 2.8378c0.0559-0.30846 0.9637-0.5145 0.9637-0.5145s0.0665 2.7106-0.0593 3.5553c-0.16541 1.4308-0.5933 1.854-0.79106 2.2902-0.15581 0.37453-0.21744 0.5596-0.19767 0.87244 0.51056-0.69688 2.9088-0.7013 3.2536-0.69838-0.66328-0.13296-1.4352-3.9628-1.4352-3.9628s0.33559 0.18503 0.89493 0.92533c1.1187 1.7119 0.89499 1.7274 2.2375 3.0229 1.5762 1.5211 4.6427 0.12333 4.419 0.06164-0.22375-0.0617-0.95102-2.1592-0.95102-2.1592s-0.55927 0.43195-1.8458 0.74041c-1.2865 0.30846-3.6359-2.5295-3.524-2.4678 0.74116-0.03084 1.1466-0.37013 1.4543-0.67859 0.4957-0.52046 0.61603-1.0499 0.67135-1.5423 0.0555-0.4936-0.22385-1.0487-0.39166-1.4188-0.16781-0.37015-0.78296-1.0489-1.622-1.1723-0.10483-0.01542-0.23609-0.02206-0.38523-0.02206zm0.47791 8.6735c0.0232 0.0046 0.046 0.0051 0.0688 3.38e-4 0 0-0.0422-8.7e-5 -0.0688-3.38e-4zm-0.60827-7.265c0.33106-0.01284 0.61783 0.2858 0.61783 0.2858 0.83922 1.192-0.71148 1.8032-1.5619 1.8468 0.13662-1.7033 0.56881-2.118 0.94403-2.1326z" style="fill:#0c0000;opacity:.99;stroke-width:.36198;stroke:#000"/>
			<path d="m110.5 48.442 0.98754-2.8709s-3.3871-2.8129-5.4315-0.08202c-1.1439 1.5862 0.52828 3.533 0.52828 3.533l3.998 3.9315s1.444 1.8178-0.93392 2.4803c-2.4215 0.28544-1.6995-3.4646-1.6995-3.4646l-3.1272 3.6092s2.3866 3.6092 6.2544 1.9686c3.4414-2.7766 0.49377-5.5778 0.49377-5.5778l-3.2918-3.117s-1.1421-1.4752-0.41147-2.2968c0.49791-0.43004 1.2453-0.25063 1.8928 0.08202 0.90525 0.73824 0.74066 1.8046 0.74066 1.8046z" style="fill:#0c0000;opacity:.99;stroke-width:.36198;stroke:#000"/>
			<path d="m132.67 45.76s-3.1272-0.73824-4.5674 1.2304c0.0824 1.3534 0.37034 6.152 0.37034 6.152s-2.0985-6.3161-4.3205-6.8493h-1.7694s2.5923 0.65622 2.4689 5.6188c-0.12347 4.9626-0.90526 6.152-0.90526 6.152s2.0985-0.69723 3.8679 0.04102c0.47319 0.08202 0.0411-0.2871 0.0411-0.2871s-1.4402-1.0253-1.9751-7.6695c1.1933 2.1327 2.8392 5.4138 3.333 7.3824 0.16458 0.04102 0.28804-1.9276 0.28804-1.9276s-1.1521-8.8179 3.1684-9.8432z" style="fill:#0c0000;opacity:.99;stroke-width:.36198;stroke:#000"/>
			<path d="m118.72 47.234c-1.168 0-3.3241 0.38717-3.3241 0.38717s0.25035 3.6843 0.31293 3.3231c0.0626-0.36121 1.0783-0.60249 1.0783-0.60249s0.0744 3.1741-0.0665 4.1633c-0.18506 1.6755-0.66382 2.171-0.88509 2.6819-0.17434 0.43858-0.24331 0.6553-0.22117 1.0216 0.57125-0.81606 3.2546-0.82124 3.6403-0.81781-0.74212-0.15569-1.6058-4.6405-1.6058-4.6405s0.37546 0.21667 1.0013 1.0836c1.2517 2.0047 1.0014 2.0228 2.5034 3.5399 1.7636 1.7812 5.1946 0.14442 4.9443 0.07219-0.25035-0.07224-1.0641-2.5285-1.0641-2.5285s-0.62575 0.50581-2.0652 0.86702c-1.4395 0.36121-4.0681-2.9621-3.943-2.8898 0.82925-0.03611 1.283-0.43343 1.6272-0.79464 0.55463-0.60946 0.68925-1.2294 0.75115-1.806 0.0621-0.57802-0.25046-1.228-0.43822-1.6615-0.18775-0.43345-0.87604-1.2282-1.8148-1.3727-0.1173-0.01806-0.26416-0.02583-0.43102-0.02583zm0.53471 10.157c0.0259 0.0055 0.0514 0.0059 0.077 3.96e-4 0 0-0.0471-1.46e-4 -0.077-3.96e-4zm-0.68057-8.5074c0.37042-0.01504 0.69127 0.33467 0.69127 0.33467 0.93897 1.3959-0.79606 2.1116-1.7475 2.1626 0.15282-1.9946 0.63645-2.4803 1.0563-2.4973z" style="fill:#0c0000;opacity:.99;stroke-width:.36198;stroke:#000"/>
			<path d="m115.8 57.666-4.2994-0.15513 1.3577-1.241 0.45255-6.05-1.0183-0.77564-1.3577 2.3269-0.33942-3.1025 6.1096-0.77564 0.11319 2.9474-1.4708-1.8615-1.3577 0.93076 0.11319 6.3602z" style="fill:#0c0000;opacity:.99;stroke-width:.36198;stroke:#000"/>
			<g transform="matrix(.39813 0 0 .39683 259.65 19.214)" style="fill:#0c0000;opacity:.99;stroke-width:.91069;stroke:#000">
				<path d="m-348.3 73.138s3.4106 3.1006 7.7515 0.41342c0.31006 0.41341-2.1704 3.9274-2.067 8.3716 0.10335 4.4442 1.2402 8.6816 2.1704 9.3018-0.51677 0.72347-0.51677 2.1704-2.2738 1.5503-2.067-0.10335-3.2926-0.44368-5.1676 0.10335 0 0-1.9637 1.2402-1.2402-0.10335 1.3436-1.4469 4.1341-3.8241 3.514-9.095-0.62011-5.271-1.1369-8.8884-2.6872-10.542z" style="fill:#0c0000;stroke-width:.91069;stroke:#000"/>
				<ellipse cx="-344.37" cy="70.709" rx="3.6029" ry="3.0344" style="fill:#0c0000;opacity:1;paint-order:normal;stroke-linecap:round;stroke-linejoin:round;stroke-width:.91069;stroke:#000"/>
			</g>
			<path d="m137.48 48.487 0.98754-2.8709s-3.2707-2.9362-5.4315-0.08202c-1.1439 1.5862 0.52829 3.533 0.52829 3.533l3.9979 3.9315s1.3567 1.8903-0.93392 2.4803c-2.4506-0.0045-1.6995-3.4646-1.6995-3.4646l-3.1272 3.6092s2.3575 3.3699 6.2544 1.9686c3.6524-2.0733 0.49376-5.5778 0.49376-5.5778l-3.2918-3.117s-1.1422-1.4752-0.41148-2.2968c0.49792-0.43004 1.2453-0.25063 1.8928 0.08203 0.90526 0.73824 0.74066 1.8046 0.74066 1.8046z" style="fill:#0c0000;opacity:.99;stroke-width:.36198;stroke:#000"/>
			<path d="m133.1 51.687 0.0411-2.8299s-3.7232-2.8809-3.9913 3.4451c0.17122 4.4506 2.1808 4.3474 2.1808 4.3474h1.934s-0.0824-4.2244 0.16457-4.2654c0.24689-0.04102 0.24689-0.41014-2.2631-0.36912-0.32919 1.4355-0.28803 1.4355-0.28803 1.4355s1.111-0.08202 1.0698 0.98432c-0.0411 1.0664-0.69951 1.1484-1.1521-0.20507-0.45263-1.3534-0.57607-5.0036 0.28803-4.6345 0.86409 0.36912 2.0162 2.0917 2.0162 2.0917z" style="fill:#0c0000;opacity:.99;stroke-width:.36198;stroke:#000"/>
			<path d="m115.09 38.937 0.24689 2.5633s-2.0368 1.1484-4.4234-0.45115c1.1727-0.04102 0.98754-0.9023 1.0904-1.1689-0.0206-0.26659 0.0617-2.6659 0.0617-2.6659s0.0206-1.3945-1.0081-1.5585c0.96698-0.04102 4.6497-0.12304 4.6497-0.12304l-0.53492 2.8299s-0.3909-1.8251-1.2344-1.8456c-0.84352-0.0205-0.94639 1.6816-0.94639 1.6816s0.24688 0.32811 0.57606-0.0205c0.34976-0.2871 0.80238-0.79976 0.80238-0.79976s0 0.14355-0.0206 0.88179c-0.0206 0.3076 0 0.88179 0 0.88179s0 1.0664-0.20573 0.45115c-0.20573-0.6152-1.3579-0.94331-1.1521 0.36912l0.20573 0.53318s0.26747 0.55368 0.74066 0.47166c0.66285-0.38145 0.78181-1.1074 0.78181-1.1074z" style="fill:#0c0000;opacity:.99;stroke-width:.36198;stroke:#000"/>
			<path d="m124.17 36.374s-2.0299 0.03315-2.6335-0.02052c0.73245 1.187 0.91662 0.76958 1.0493 2.2762 0.1221 1.3873 0.0206 3.5682 0.0206 3.5682s-0.76124 1.3945-1.6459-0.02052c-0.18516-1.538-0.12346-3.9373 0.0206-4.2859 0.14402-0.34862 0.0824-1.1074 0.78181-1.7431-0.96697 0.02052-2.366 0.06152-2.366 0.06152s0.63562 0.55763 0.51435 1.9276c-0.12347 1.3945-0.34977 4.3064-0.14402 5.5983 0.14402 1.0048 3.2918 1.8456 4.197 0 0.24689-0.73824 0-1.2714-0.12346-2.8915-0.18517-1.5995-0.0617-3.4656-0.0617-3.4656s-0.0411-0.9023 0.39089-1.0048z" style="fill:#0c0000;opacity:.99;stroke-width:.36198;stroke:#000"/>
			<path d="m126.91 35.854-3.2005 0.029s1.7166 0.92803 0.46554 8.5553c0.81467-0.43501 2.7641-0.92803 3.8406-0.23201 0.93107 0.20301 1.4839 1e-6 1.4839 1e-6l0.029-3.2481s-0.61101 0.98603-1.6585 1.276h-1.5421s-0.64011 0.145-0.72739 0.34801c-0.14549-1.131-0.29097-6.7862 1.3093-6.7282z" style="fill:#0c0000;opacity:.99;stroke-width:.36198;stroke:#000"/>
			<path d="m126.91 35.854s1.7408 2.2424-1.0367 6.0977c2.4688 0.0205 2.8696-0.06541 2.8696-0.06541s-0.81466-0.58015-0.69828-1.5372c0.52372-0.20301 1.1638-0.17397 1.7167 0.05804 0.11634 0.66702 0.31995 1.073 0.029 2.436 0.98925-0.05801 2.3277-0.20281 2.3277-0.20281s-2.6186-1.8272-1.6584-6.6993c-2.1822-0.029-3.5496-0.08695-3.5496-0.08695zm1.7251 1.6323c0.1664 0.0018 0.37631 0.43929 0.63284 1.7379l-1.1316 0.08202s0.15797-1.8236 0.49871-1.82z" style="fill:#0c0000;opacity:.99;stroke-width:.36198;stroke:#000"/>
			<path d="m119.35 39.039 0.0411-2.8299s-3.7233-2.8809-3.9913 3.4451c0.17121 4.4506 2.1808 4.3474 2.1808 4.3474h1.934s-0.0824-4.2244 0.16459-4.2654c0.24688-0.04102 0.24688-0.41014-2.2631-0.36912-0.32919 1.4355-0.28804 1.4355-0.28804 1.4355s1.111-0.08202 1.0698 0.98432c-0.0411 1.0664-0.69951 1.1484-1.1521-0.20506-0.45263-1.3534-0.57607-5.0036 0.28803-4.6345 0.8641 0.36912 2.0162 2.0917 2.0162 2.0917z" style="fill:#0c0000;opacity:.99;stroke-width:.36198;stroke:#000"/>
			<path d="m133.43 35.61c-1.0439 0-2.9709 0.33063-2.9709 0.33063s0.22373 3.1463 0.27967 2.8378c0.0559-0.30846 0.96371-0.5145 0.96371-0.5145s0.0665 2.7106-0.0593 3.5553c-0.1654 1.4308-0.59329 1.854-0.79106 2.2902-0.15581 0.37453-0.21744 0.5596-0.19766 0.87244 0.51057-0.69688 2.9088-0.7013 3.2536-0.69838-0.66329-0.13296-1.4352-3.9628-1.4352-3.9628s0.33557 0.18503 0.89493 0.92533c1.1187 1.7119 0.89497 1.7274 2.2374 3.0229 1.5762 1.5211 4.6427 0.12333 4.419 0.06164-0.22375-0.0617-0.95103-2.1592-0.95103-2.1592s-0.55925 0.43195-1.8458 0.74041c-1.2865 0.30846-3.6359-2.5295-3.524-2.4678 0.74117-0.03084 1.1467-0.37013 1.4543-0.67859 0.49569-0.52046 0.61602-1.0499 0.67135-1.5423 0.0555-0.4936-0.22386-1.0487-0.39168-1.4188-0.1678-0.37015-0.78295-1.0489-1.622-1.1723-0.10483-0.01542-0.23609-0.02206-0.38521-0.02206zm0.47791 8.6735c0.023 0.0046 0.0459 0.0051 0.0688 3.36e-4 0 0-0.0422-8.8e-5 -0.0688-3.36e-4zm-0.60828-7.265c0.33107-0.01284 0.61783 0.2858 0.61783 0.2858 0.83922 1.192-0.71148 1.8032-1.5619 1.8468 0.13663-1.7033 0.56884-2.118 0.94404-2.1326z" style="fill:#0c0000;opacity:.99;stroke-width:.36198;stroke:#000"/>
			<rect x="101.58" y="26.165" width="41.081" height="39.994" rx="0" ry="0" style="fill:none;paint-order:normal;stroke-linecap:round;stroke-linejoin:round;stroke-width:.66146;stroke:#000"/>
			<path d="m97.607 21.001h49.429" style="fill:none;stroke-width:.26458;stroke:#000"/>
			<path d="m97.607 20.233h49.429" style="fill:none;stroke-width:.26458;stroke:#000"/>
			<path d="m97.607 19.156h49.429" style="fill:none;stroke-width:.26458;stroke:#000"/>
			<path d="m97.607 18.234h49.429" style="fill:none;stroke-width:.26458;stroke:#000"/>
			<path d="m97.607 17.311h49.429" style="fill:none;stroke-width:.26458;stroke:#000"/>
			<path d="m98.796 70.198h47.306" style="fill:none;stroke-width:.26458;stroke:#000"/>
		</g>
	</g>
</svg>
