<?xml version="1.0" encoding="utf-8"?>
<!-- Generator: Adobe Illustrator 19.2.0, SVG Export Plug-In . SVG Version: 6.00 Build 0)  -->
<svg version="1.1" xmlns="http://www.w3.org/2000/svg" xmlns:xlink="http://www.w3.org/1999/xlink" x="0px" y="0px"
	 viewBox="0 0 434.5 432" style="enable-background:new 0 0 434.5 432;" xml:space="preserve">
<style type="text/css">
	.st0{fill:none;stroke:#000000;stroke-miterlimit:10;}
	.st1{stroke:#000000;stroke-miterlimit:10;}
	.st2{fill:none;}
	.st3{fill:#FFFFFF;}
	.st4{fill:#1D71B8;}
	.st5{stroke:#FFFFFF;stroke-width:3;stroke-miterlimit:10;}
	.st6{fill:#010202;}
	.st7{font-family:'TwCenMT-Regular';}
	.st8{font-size:24px;}
	.st9{fill:none;stroke:#000000;stroke-width:10;stroke-miterlimit:10;}
</style>
<g id="Calque_1">
	<g>
		<path d="M319.3,253.5c0,0-0.2,0.6-0.7,1.8c-0.5,1.2-1.1,3-2.1,5.3c-1.9,4.6-5.1,11.2-10.4,18.8c-5.3,7.6-12.7,16.3-23,24.1
			c-10.2,7.9-23.3,14.9-38.7,19c-15.3,4-33,5-50.8,1c-17.8-3.9-35.6-12.7-50.2-26.1c-14.6-13.4-25.9-31.5-31.3-51.7
			c-1.3-5-2.4-10.2-3-15.4c-0.6-5.2-0.9-10.5-0.7-15.7c0.3-10.5,2.2-21.1,5.5-31.1l0.6-1.9l0.7-1.8c0.5-1.2,0.9-2.5,1.4-3.7
			c1.1-2.4,2.1-4.9,3.3-7.2c1.1-2.4,2.5-4.7,3.8-7c1.4-2.2,2.8-4.5,4.3-6.6c1.5-2.2,3.1-4.2,4.8-6.3c0.8-1,1.7-2,2.6-3
			c0.8-1,1.7-2,2.7-2.9c0.9-0.9,1.8-1.9,2.7-2.8l2.8-2.7c1-0.9,2-1.7,3-2.6c0.5-0.4,1-0.9,1.5-1.3l1.5-1.2
			c16.4-12.9,36.2-20.7,55.9-22.7c4.9-0.5,9.8-0.6,14.7-0.5c4.9,0.2,9.7,0.6,14.4,1.5c9.4,1.5,18.4,4.4,26.7,8.1
			c16.6,7.4,30.2,18.7,40,31.1c4.9,6.2,9,12.7,12.2,19.1c3.2,6.5,5.6,12.9,7.4,19.1c1.8,6.2,2.8,12.1,3.4,17.7
			c0.6,5.5,0.8,10.7,0.6,15.3c-0.3,9.2-1.7,16.4-2.9,21.2c-0.5,2.4-1.1,4.2-1.4,5.5c-0.4,1.2-0.5,1.9-0.5,1.9s0.2-0.6,0.5-1.9
			c0.3-1.2,0.9-3,1.4-5.5c1.2-4.8,2.5-12,2.8-21.2c0.2-4.6,0-9.7-0.6-15.3c-0.6-5.5-1.7-11.5-3.4-17.7c-1.8-6.2-4.2-12.6-7.4-19.1
			c-3.2-6.4-7.3-12.9-12.2-19.1c-9.8-12.4-23.4-23.6-40-31c-8.3-3.7-17.2-6.5-26.6-8.1c-4.7-0.9-9.5-1.2-14.3-1.4
			c-4.9-0.1-9.8,0-14.7,0.5c-19.6,2.1-39.4,9.8-55.7,22.7l-1.5,1.2c-0.5,0.4-1,0.8-1.5,1.3c-1,0.9-2,1.7-2.9,2.6l-2.8,2.7
			c-1,0.9-1.8,1.9-2.7,2.8c-0.9,0.9-1.8,1.9-2.6,2.9c-0.8,1-1.7,2-2.6,3c-1.6,2.1-3.3,4.1-4.7,6.3c-1.6,2.1-2.9,4.4-4.3,6.6
			c-1.3,2.3-2.6,4.6-3.8,6.9c-1.2,2.3-2.2,4.8-3.3,7.2c-0.5,1.2-0.9,2.5-1.4,3.7l-0.7,1.9l-0.6,1.9c-3.3,10-5.1,20.5-5.4,31
			c-0.2,5.2,0.2,10.5,0.7,15.7c0.6,5.2,1.7,10.3,3,15.3c5.4,20,16.6,38,31.2,51.3c14.5,13.4,32.3,22.1,49.9,25.9
			c17.7,4,35.2,2.9,50.4-1.1c15.3-4.1,28.2-11.1,38.3-18.9c10.2-7.8,17.5-16.4,22.7-23.9c5.2-7.6,8.4-14.1,10.3-18.6
			c1-2.2,1.6-4,2.1-5.2c0.5-1.2,0.7-1.8,0.7-1.8L319.3,253.5z"/>
	</g>
	<ellipse transform="matrix(0.9341 -0.357 0.357 0.9341 -26.8991 106.0472)" class="st5" cx="273.8" cy="125.9" rx="4.5" ry="4.5"/>
	
		<ellipse transform="matrix(0.4081 -0.9129 0.9129 0.4081 -132.3086 226.26)" class="st5" cx="108.3" cy="215.2" rx="4.5" ry="4.5"/>
	
		<ellipse transform="matrix(0.4081 -0.9129 0.9129 0.4081 -126.088 430.1788)" class="st5" cx="268.7" cy="312.3" rx="4.5" ry="4.5"/>
	<g>
		<path d="M336.4,252.9c0,0-0.2,0.7-0.7,2.1c-0.5,1.4-1.1,3.5-2.1,6.1c-2,5.3-5.2,13.1-10.9,22.1c-5.6,9-13.7,19.3-25,28.9
			c-11.3,9.6-25.8,18.4-43.2,23.9c-8.7,2.8-18.1,4.6-27.9,5.4c-2.4,0.3-4.9,0.3-7.4,0.4c-1.2,0.1-2.5,0-3.8,0c-1.3,0-2.5,0-3.8-0.1
			c-1.3-0.1-2.5-0.2-3.8-0.2l-1.9-0.1l-1.9-0.2c-1.3-0.1-2.6-0.3-3.9-0.4c-1.3-0.2-2.6-0.4-3.9-0.6c-5.2-0.8-10.3-2.1-15.5-3.6
			c-1.3-0.4-2.5-0.8-3.8-1.2l-1.9-0.6l-1.9-0.7c-1.3-0.5-2.5-1-3.8-1.5c-1.3-0.5-2.5-1.1-3.8-1.6c-10-4.4-19.6-10.5-28.4-17.7
			c-17.5-14.5-31.5-34.6-38.9-57.3c-3.7-11.4-5.8-23.3-6.1-35.4c-0.1-6,0.1-12.1,0.9-18.1l0.3-2.3l0.4-2.2c0.3-1.5,0.5-3,0.8-4.5
			c0.6-3,1.3-5.9,2.1-8.9c0.7-2.9,1.8-5.8,2.7-8.7c0.5-1.4,1.1-2.8,1.6-4.3c0.3-0.7,0.5-1.4,0.8-2.1l0.9-2.1
			c2.4-5.6,5.3-10.9,8.4-16.1c6.4-10.3,14.3-19.5,23.3-27.4c17.9-15.8,40.1-26,62.6-29.6c11.2-1.7,22.5-2.1,33.4-0.8
			c5.4,0.5,10.8,1.6,16,2.8c5.2,1.4,10.2,2.8,15.1,4.8c4.9,1.8,9.5,4,14,6.4c1.1,0.6,2.2,1.2,3.3,1.8l1.6,0.9l1.6,1
			c1.1,0.7,2.1,1.3,3.2,2c1,0.7,2,1.4,3,2.1c4,2.8,7.8,5.8,11.3,8.9c3.5,3.2,6.8,6.4,9.8,9.8c12.2,13.6,20.2,28.5,25,42.5
			c2.4,7,4,13.7,5.1,20c0.6,3.1,0.9,6.2,1.2,9.1c0.2,2.9,0.5,5.7,0.5,8.4c0.3,10.6-0.8,18.9-1.8,24.5c-0.4,2.8-1,4.9-1.3,6.4
			c-0.3,1.4-0.5,2.2-0.5,2.2s0.2-0.7,0.5-2.2c0.3-1.4,0.9-3.5,1.3-6.4c1-5.6,2.1-13.9,1.8-24.5c0-2.7-0.3-5.4-0.5-8.4
			c-0.3-2.9-0.6-6-1.2-9.1c-1.1-6.3-2.7-13-5.1-20c-4.8-13.9-12.9-28.9-25-42.4c-3-3.4-6.3-6.6-9.8-9.8c-3.6-3.1-7.3-6.1-11.3-8.9
			c-1-0.7-2-1.4-3-2.1c-1-0.7-2.1-1.3-3.2-2l-1.6-1l-1.6-0.9c-1.1-0.6-2.2-1.2-3.3-1.8c-4.5-2.3-9.1-4.5-14-6.3
			c-4.8-1.9-9.9-3.4-15.1-4.7c-5.2-1.2-10.5-2.3-15.9-2.8c-10.8-1.3-22.1-0.9-33.3,0.8c-22.4,3.6-44.5,13.8-62.4,29.6
			c-8.9,7.9-16.8,17.1-23.1,27.3c-3.2,5.1-6,10.4-8.4,16l-0.9,2.1c-0.3,0.7-0.5,1.4-0.8,2.1c-0.5,1.4-1.1,2.8-1.6,4.2
			c-0.9,2.9-1.9,5.7-2.7,8.7c-0.9,2.9-1.4,5.9-2.1,8.8c-0.3,1.5-0.5,3-0.8,4.5l-0.4,2.2l-0.3,2.2c-0.8,6-1,12-0.9,18
			c0.3,12,2.4,24,6.1,35.3c7.4,22.6,21.3,42.6,38.8,57c17.5,14.4,38.3,23.4,58.7,26.7c1.3,0.2,2.6,0.4,3.8,0.6
			c1.3,0.1,2.6,0.3,3.8,0.4l1.9,0.2l1.9,0.1c1.3,0.1,2.5,0.2,3.8,0.2c1.3,0.1,2.5,0,3.8,0.1c1.3,0,2.5,0.1,3.7,0
			c2.5-0.1,4.9-0.1,7.4-0.4c9.7-0.8,19-2.7,27.7-5.4c17.3-5.5,31.7-14.3,42.9-23.8c11.2-9.5,19.2-19.8,24.8-28.7
			c5.6-9,8.8-16.7,10.8-21.9c1.1-2.6,1.6-4.7,2.1-6.1c0.5-1.4,0.7-2.1,0.7-2.1L336.4,252.9z"/>
	</g>
	<ellipse transform="matrix(0.6251 -0.7805 0.7805 0.6251 -45.1763 349.9495)" class="st5" cx="341.7" cy="222" rx="5.2" ry="5.2"/>
	
		<ellipse transform="matrix(0.9939 -0.1099 0.1099 0.9939 -10.9405 17.9418)" class="st5" cx="157.3" cy="108.2" rx="5.2" ry="5.2"/>
	
		<ellipse transform="matrix(0.9939 -0.1099 0.1099 0.9939 -34.7642 18.9819)" class="st5" cx="154.8" cy="324.8" rx="5.2" ry="5.2"/>
	<g>
		<path d="M353.6,253.2c0,0-0.2,0.8-0.7,2.4c-0.2,0.8-0.5,1.8-0.8,3c-0.3,1.2-0.8,2.5-1.3,4.1c-2,6.1-5.3,15.1-11.2,25.5
			c-5.9,10.5-14.5,22.5-26.8,33.9c-12.3,11.4-28.3,22.1-47.7,29.2c-9.7,3.5-20.2,6.1-31.2,7.5c-11,1.4-22.6,1.4-34.3-0.1
			c-2.9-0.3-5.9-0.9-8.8-1.4c-1.5-0.2-2.9-0.6-4.4-0.9c-1.5-0.3-2.9-0.6-4.4-1c-1.5-0.4-2.9-0.8-4.4-1.2c-0.7-0.2-1.5-0.4-2.2-0.6
			l-2.2-0.7c-1.5-0.5-2.9-1-4.4-1.5c-1.4-0.6-2.9-1.1-4.3-1.7l-2.2-0.8l-2.1-1c-1.4-0.6-2.8-1.3-4.3-1.9c-1.4-0.7-2.8-1.4-4.2-2.1
			l-2.1-1.1l-2.1-1.2c-1.4-0.8-2.7-1.6-4.1-2.4c-1.3-0.9-2.7-1.7-4-2.6c-0.7-0.4-1.4-0.9-2-1.3l-2-1.4c-1.3-0.9-2.6-1.8-3.9-2.8
			c-20.5-15.6-37.2-37.6-46.7-63c-0.6-1.6-1.1-3.2-1.7-4.8l-0.8-2.4c-0.3-0.8-0.5-1.6-0.7-2.4c-0.5-1.6-0.9-3.3-1.4-4.9l-1.1-5
			l-0.3-1.2l-0.2-1.3l-0.5-2.5c-0.3-1.7-0.6-3.4-0.8-5.1c-0.2-1.7-0.5-3.4-0.6-5.1l-0.4-5.1c-0.9-13.7,0.2-27.5,3.4-40.9l0.6-2.5
			c0.2-0.8,0.5-1.7,0.7-2.5c0.5-1.6,0.9-3.3,1.4-4.9c1.1-3.3,2.1-6.5,3.4-9.7c1.2-3.2,2.7-6.3,4.1-9.5c0.7-1.5,1.5-3.1,2.3-4.6
			c0.4-0.8,0.8-1.5,1.2-2.3l1.3-2.2c3.3-6,7.2-11.6,11.4-17c4.2-5.4,8.8-10.4,13.7-15c4.9-4.7,10.1-8.9,15.6-12.8
			c5.4-3.9,11.2-7.3,17-10.4c11.8-6.1,24.3-10.4,36.9-13c3.2-0.6,6.3-1.2,9.5-1.5c3.2-0.5,6.3-0.7,9.5-0.9
			c6.3-0.3,12.6-0.4,18.8,0.1c12.4,0.8,24.3,3.4,35.5,7.2c11.2,3.7,21.5,8.9,30.8,14.9c9.4,6,17.6,13,24.7,20.4
			c7.1,7.4,13.2,15.3,18.2,23.2c5,8,8.9,16,11.9,23.8c3,7.8,5.1,15.4,6.6,22.4c0.2,0.9,0.4,1.8,0.5,2.6c0.2,0.9,0.3,1.7,0.4,2.6
			c0.3,1.7,0.6,3.4,0.8,5c0.2,1.6,0.4,3.3,0.5,4.8c0.2,1.6,0.2,3.1,0.3,4.6c0.7,12-0.2,21.4-1.1,27.8c-0.4,3.2-0.9,5.6-1.2,7.2
			c-0.3,1.6-0.5,2.5-0.5,2.5s0.2-0.8,0.5-2.5c0.3-1.6,0.8-4,1.2-7.2c0.9-6.4,1.8-15.8,1-27.8c-0.1-1.5-0.1-3-0.3-4.6
			c-0.2-1.6-0.4-3.2-0.5-4.8c-0.2-1.6-0.5-3.3-0.8-5c-0.1-0.9-0.3-1.7-0.4-2.6c-0.2-0.9-0.4-1.7-0.6-2.6c-1.5-7.1-3.6-14.6-6.6-22.4
			c-3-7.8-7-15.8-11.9-23.7c-5-7.9-11-15.8-18.2-23.2c-7.1-7.4-15.4-14.3-24.7-20.3c-9.3-6-19.6-11.2-30.8-14.9
			c-11.2-3.8-23.1-6.3-35.4-7.2c-6.2-0.5-12.4-0.4-18.7-0.1c-3.1,0.3-6.3,0.5-9.5,0.9c-3.2,0.3-6.3,1-9.5,1.5
			c-12.6,2.6-25,6.9-36.8,13c-5.8,3.1-11.6,6.5-17,10.4c-5.4,3.9-10.7,8.1-15.5,12.8c-4.9,4.7-9.5,9.6-13.6,15
			c-4.2,5.3-8,11-11.4,16.9l-1.3,2.2c-0.4,0.7-0.8,1.5-1.2,2.3c-0.8,1.5-1.6,3-2.3,4.6c-1.4,3.1-2.9,6.2-4,9.4
			c-1.3,3.2-2.3,6.4-3.4,9.7c-0.5,1.6-0.9,3.3-1.4,4.9c-0.2,0.8-0.5,1.7-0.7,2.5l-0.6,2.5c-3.1,13.3-4.2,27.1-3.3,40.7l0.4,5.1
			c0.2,1.7,0.4,3.4,0.6,5.1c0.2,1.7,0.5,3.4,0.8,5l0.5,2.5l0.2,1.3l0.3,1.2l1.1,5c0.4,1.6,0.9,3.3,1.4,4.9c0.2,0.8,0.4,1.6,0.7,2.4
			l0.8,2.4c0.6,1.6,1,3.2,1.7,4.8c9.4,25.3,26.1,47.2,46.5,62.7c20.4,15.5,44.4,24.7,67.7,27.5c11.7,1.4,23.2,1.5,34.1,0
			c11-1.4,21.4-3.9,31-7.5c19.3-7.1,35.2-17.7,47.4-29.1c12.3-11.3,20.7-23.3,26.6-33.7c5.9-10.4,9.2-19.3,11.1-25.4
			c0.5-1.5,1-2.9,1.3-4c0.3-1.2,0.6-2.2,0.8-3c0.4-1.6,0.7-2.4,0.7-2.4L353.6,253.2z"/>
	</g>
	<ellipse transform="matrix(0.9102 -0.4141 0.4141 0.9102 -14.1347 126.405)" class="st5" cx="284.5" cy="95.8" rx="5.8" ry="5.8"/>
	
		<ellipse transform="matrix(0.3508 -0.9365 0.9365 0.3508 -159.8335 216.9172)" class="st5" cx="76.5" cy="223.7" rx="5.8" ry="5.8"/>
	
		<ellipse transform="matrix(0.3508 -0.9365 0.9365 0.3508 -125.3674 492.7913)" class="st5" cx="292.7" cy="336.8" rx="5.8" ry="5.8"/>
	<g>
		<path d="M370.1,252.9c0,0-0.2,0.9-0.7,2.7c-0.2,0.9-0.5,2-0.9,3.3c-0.3,1.3-0.8,2.9-1.3,4.6c-2,6.9-5.5,16.9-11.9,28.8
			c-6.3,11.8-15.6,25.5-29.1,38.5c-13.4,13-31.1,25.3-52.6,33.7c-10.7,4.1-22.4,7.3-34.7,9c-12.3,1.8-25.2,2-38.3,0.7l-2.5-0.2
			c-0.8-0.1-1.6-0.2-2.5-0.3c-1.6-0.2-3.3-0.5-4.9-0.7c-1.7-0.2-3.3-0.6-4.9-0.9c-1.6-0.4-3.3-0.6-5-1.1c-3.3-0.9-6.6-1.6-9.8-2.7
			c-1.6-0.5-3.3-1-4.9-1.5c-1.6-0.6-3.2-1.2-4.9-1.8c-0.8-0.3-1.6-0.6-2.4-0.9l-2.4-1c-1.6-0.7-3.2-1.4-4.8-2.1
			c-1.6-0.8-3.2-1.5-4.7-2.3c-0.8-0.4-1.6-0.8-2.4-1.2l-2.3-1.3c-6.3-3.3-12.2-7.2-18.1-11.4c-23.3-16.9-42.4-41.2-53.4-69.3
			c-2.7-7-5-14.3-6.8-21.7c-1.7-7.4-2.9-15-3.6-22.6c-0.2-1.9-0.2-3.8-0.3-5.7l-0.2-2.9l0-2.9c0-1.9,0-3.8,0-5.7l0.3-5.7l0.1-1.4
			l0.1-1.4l0.3-2.9c0.2-1.9,0.3-3.8,0.7-5.7l0.8-5.7l1.1-5.6c0.2-0.9,0.4-1.9,0.6-2.8l0.7-2.8c0.5-1.8,0.9-3.7,1.5-5.6l1.7-5.5
			c0.3-0.9,0.6-1.8,0.9-2.7l1-2.7l1-2.7c0.3-0.9,0.7-1.8,1.1-2.7l2.2-5.3c1.7-3.4,3.3-6.9,5.2-10.2c1.8-3.4,3.8-6.6,5.8-9.9
			c2.2-3.1,4.2-6.3,6.6-9.3c2.2-3.1,4.7-5.9,7.2-8.8c2.6-2.8,5.1-5.6,7.8-8.2c2.6-2.7,5.5-5.2,8.3-7.7c2.9-2.4,5.8-4.8,8.8-7
			c3-2.3,6.1-4.3,9.2-6.3c1.6-1,3.2-1.9,4.8-2.9c0.8-0.5,1.6-1,2.4-1.4l2.4-1.3c1.6-0.8,3.2-1.8,4.9-2.6c1.7-0.8,3.3-1.6,5-2.4
			c1.7-0.8,3.4-1.4,5.1-2.2l2.5-1.1l2.6-0.9c6.8-2.6,13.8-4.5,20.8-6.1c1.8-0.4,3.5-0.7,5.3-1.1c1.8-0.3,3.5-0.6,5.3-0.8l2.6-0.4
			c0.9-0.1,1.8-0.2,2.6-0.3c1.8-0.2,3.5-0.4,5.3-0.5c1.8-0.1,3.5-0.2,5.3-0.3l2.6-0.1l2.6,0c1.7,0,3.5,0,5.2,0
			c1.7,0.1,3.5,0.2,5.2,0.2l2.6,0.1l2.6,0.3c1.7,0.2,3.4,0.3,5.1,0.5c1.7,0.3,3.4,0.5,5.1,0.8l2.5,0.4c0.8,0.1,1.7,0.3,2.5,0.5
			c1.7,0.3,3.3,0.7,5,1c1.7,0.3,3.3,0.8,4.9,1.2c1.6,0.4,3.2,0.8,4.8,1.3c1.6,0.5,3.2,1,4.7,1.5c1.6,0.5,3.1,1.1,4.7,1.6
			c1.5,0.6,3.1,1.1,4.6,1.7c1.5,0.6,3,1.3,4.5,1.9l2.2,0.9l2.2,1c1.4,0.7,2.9,1.4,4.3,2.1c1.4,0.7,2.8,1.5,4.2,2.2
			c2.8,1.4,5.4,3.1,8.1,4.7c1.3,0.8,2.6,1.7,3.9,2.5c1.3,0.9,2.5,1.7,3.8,2.6c1.2,0.9,2.4,1.8,3.6,2.7c1.2,0.9,2.4,1.8,3.6,2.8
			c2.3,1.9,4.6,3.7,6.8,5.8c1.1,1,2.2,2,3.2,2.9c1,1,2.1,2,3.1,3.1c8.1,8.1,15,16.8,20.7,25.6c5.7,8.8,10.2,17.7,13.7,26.4
			c3.5,8.6,6,17.1,7.7,25c1.7,7.9,2.8,15.3,3.2,21.9c1,13.4,0.1,23.9-0.8,31c-0.4,3.6-0.9,6.3-1.2,8.1c-0.3,1.8-0.5,2.8-0.5,2.8
			s0.2-0.9,0.5-2.8c0.3-1.8,0.9-4.5,1.2-8.1c0.9-7.1,1.8-17.7,0.7-31c-0.4-6.7-1.5-14-3.3-21.9c-1.8-7.9-4.2-16.3-7.7-24.9
			c-3.5-8.6-8-17.5-13.7-26.3c-5.7-8.8-12.6-17.4-20.7-25.6c-1-1-2-2-3.1-3.1c-1.1-1-2.2-2-3.2-2.9c-2.1-2-4.5-3.8-6.8-5.7
			c-1.1-1-2.4-1.9-3.6-2.8c-1.2-0.9-2.4-1.8-3.6-2.7c-1.3-0.8-2.5-1.7-3.8-2.6c-1.3-0.8-2.5-1.7-3.9-2.5c-2.7-1.6-5.3-3.3-8.1-4.7
			c-1.4-0.7-2.8-1.5-4.2-2.2c-1.4-0.7-2.9-1.4-4.3-2.1l-2.2-1l-2.2-0.9c-1.5-0.6-3-1.2-4.5-1.9c-1.5-0.6-3.1-1.1-4.6-1.7
			c-1.5-0.5-3.1-1.1-4.6-1.6c-1.6-0.5-3.1-1-4.7-1.5c-1.6-0.5-3.2-0.8-4.8-1.3c-1.6-0.4-3.2-0.9-4.9-1.2c-1.6-0.3-3.3-0.7-4.9-1
			c-0.8-0.2-1.7-0.4-2.5-0.5l-2.5-0.4c-1.7-0.2-3.4-0.5-5.1-0.7c-1.7-0.2-3.4-0.3-5.1-0.5l-2.6-0.2l-2.6-0.1
			c-1.7-0.1-3.5-0.2-5.2-0.2c-1.7,0-3.5,0-5.2,0l-2.6,0l-2.6,0.1c-1.8,0.1-3.5,0.2-5.3,0.3c-1.8,0.2-3.5,0.4-5.3,0.5
			c-0.9,0.1-1.8,0.2-2.6,0.3l-2.6,0.4c-1.8,0.3-3.5,0.5-5.3,0.8c-1.7,0.4-3.5,0.7-5.3,1.1c-7,1.6-14,3.5-20.8,6.1l-2.6,0.9l-2.5,1.1
			c-1.7,0.7-3.4,1.4-5.1,2.2c-1.7,0.8-3.3,1.6-5,2.4c-1.7,0.8-3.3,1.7-4.9,2.6l-2.4,1.3c-0.8,0.4-1.6,0.9-2.4,1.4
			c-1.6,1-3.2,1.9-4.8,2.9c-3.1,2.1-6.2,4.1-9.2,6.3c-3.1,2.1-5.9,4.6-8.8,6.9c-2.8,2.5-5.6,5-8.3,7.7c-2.7,2.6-5.2,5.4-7.8,8.2
			c-2.4,2.9-4.9,5.8-7.1,8.8c-2.4,3-4.4,6.2-6.6,9.3c-2,3.3-4,6.4-5.8,9.8c-1.9,3.3-3.5,6.8-5.1,10.2l-2.2,5.3
			c-0.4,0.9-0.8,1.7-1.1,2.6l-1,2.7l-1,2.7c-0.3,0.9-0.7,1.8-0.9,2.7l-1.7,5.5c-0.6,1.8-1,3.7-1.5,5.6l-0.7,2.8
			c-0.2,0.9-0.4,1.9-0.6,2.8l-1.1,5.6l-0.8,5.7c-0.3,1.9-0.5,3.8-0.7,5.7l-0.3,2.9l-0.1,1.4l-0.1,1.4l-0.3,5.7c-0.1,1.9,0,3.8,0,5.7
			l0,2.9l0.2,2.9c0.1,1.9,0.2,3.8,0.4,5.7c0.6,7.6,1.9,15.1,3.6,22.5c1.7,7.4,4.1,14.6,6.8,21.6c11,28,30.1,52.2,53.3,69
			c23.2,16.9,50.1,26.6,76.2,29.2c13.1,1.3,25.9,1.1,38.1-0.7c12.2-1.8,23.8-4.9,34.5-9c21.4-8.4,38.9-20.6,52.2-33.6
			c13.4-12.9,22.6-26.6,28.9-38.3c6.3-11.8,9.8-21.8,11.8-28.6c0.5-1.7,1-3.2,1.3-4.5c0.3-1.3,0.6-2.4,0.8-3.3
			c0.5-1.8,0.7-2.7,0.7-2.7L370.1,252.9z"/>
	</g>
	
		<ellipse transform="matrix(0.4776 -0.8786 0.8786 0.4776 22.5612 429.3127)" class="st5" cx="372.3" cy="195.7" rx="6.5" ry="6.5"/>
	<ellipse transform="matrix(0.959 -0.2835 0.2835 0.959 -22.5106 37.4349)" class="st5" cx="118.1" cy="96.5" rx="6.5" ry="6.5"/>
	<ellipse transform="matrix(0.959 -0.2835 0.2835 0.959 -96.8395 60.6727)" class="st5" cx="161.2" cy="364.9" rx="6.5" ry="6.5"/>
	<g>
		<path d="M301.7,253.7c0,0-0.2,0.5-0.7,1.5c-0.5,1-1.1,2.4-2.1,4.3c-1.9,3.7-4.9,9.1-9.8,15.2c-2.4,3.1-5.3,6.3-8.7,9.5
			c-3.4,3.2-7.4,6.4-11.9,9.5c-9,6.1-20.3,11.3-33.5,14c-6.5,1.3-13.5,2-20.7,1.8c-7.2-0.2-14.6-1.2-22-3.3
			c-7.4-2.1-14.7-5-21.7-9.1c-0.9-0.5-1.7-1-2.6-1.5c-0.8-0.6-1.7-1.1-2.5-1.7c-1.7-1.1-3.3-2.4-5-3.6c-0.8-0.6-1.6-1.3-2.4-1.9
			c-0.8-0.6-1.6-1.3-2.4-2c-0.8-0.7-1.5-1.4-2.3-2.1l-2.2-2.2c-11.7-11.9-20.5-27.5-24.3-44.6c-1.9-8.5-2.6-17.4-2.1-26.3
			c0.3-4.4,1-8.8,1.8-13.2c0.9-4.4,2.2-8.6,3.7-12.8c1.6-4.2,3.4-8.2,5.5-12.1c2.2-3.9,4.5-7.7,7.2-11.2c2.7-3.5,5.5-6.9,8.7-10
			c3.1-3.1,6.5-6,10-8.6c14.1-10.5,30.9-16.5,47.5-17.9c16.6-1.4,32.9,2,46.7,8.6c6.9,3.2,13.2,7.3,18.8,11.8
			c5.6,4.5,10.4,9.6,14.5,14.8c8.2,10.5,13.3,21.9,16.1,32.3c2.8,10.5,3.5,20,3.2,27.7c-0.3,7.8-1.5,13.8-2.5,17.8
			c-0.5,2-0.9,3.6-1.2,4.6c-0.3,1-0.5,1.6-0.5,1.6s0.2-0.5,0.5-1.6c0.3-1,0.8-2.6,1.2-4.6c1-4,2.1-10.1,2.4-17.8
			c0.3-7.7-0.4-17.3-3.2-27.7c-2.9-10.4-8-21.7-16.2-32.2c-4.1-5.2-8.9-10.3-14.5-14.8c-5.6-4.5-11.8-8.6-18.8-11.8
			c-6.9-3.2-14.4-5.8-22.2-7.2c-1-0.2-2-0.4-3-0.5c-1-0.1-2-0.3-3-0.4l-1.5-0.2l-1.5-0.1c-1-0.1-2-0.2-3-0.2
			c-4.1-0.2-8.2-0.2-12.3,0.2c-16.5,1.4-33.3,7.4-47.3,17.9c-3.5,2.6-6.8,5.5-9.9,8.6c-3.1,3.1-6,6.4-8.6,10
			c-2.7,3.5-5,7.3-7.1,11.1c-2.1,3.9-3.9,8-5.5,12.1c-1.5,4.2-2.8,8.4-3.7,12.7c-0.9,4.3-1.6,8.7-1.8,13.1
			c-0.6,8.8,0.1,17.6,2.1,26.1c3.8,17,12.6,32.5,24.2,44.3l2.2,2.2c0.8,0.7,1.5,1.4,2.3,2.1c0.8,0.7,1.5,1.4,2.3,2
			c0.8,0.6,1.6,1.3,2.4,1.9c1.7,1.2,3.2,2.5,5,3.5c0.8,0.6,1.7,1.1,2.5,1.6c0.9,0.5,1.7,1,2.6,1.5c6.9,4,14.2,6.9,21.5,9
			c7.3,2.1,14.7,3,21.8,3.2c7.1,0.2,14.1-0.4,20.5-1.8c13-2.7,24.2-7.9,33.1-13.9c4.5-3,8.4-6.2,11.7-9.4c3.3-3.2,6.2-6.4,8.6-9.4
			c4.8-6,7.8-11.4,9.7-15c1-1.8,1.6-3.3,2.1-4.3c0.4-1,0.7-1.5,0.7-1.5L301.7,253.7z"/>
	</g>
	
		<ellipse transform="matrix(0.9289 -0.3703 0.3703 0.9289 -32.6504 107.7294)" class="st5" cx="264.3" cy="138.9" rx="3.8" ry="3.8"/>
	<ellipse transform="matrix(0.395 -0.9187 0.9187 0.395 -122.8631 245.3366)" class="st5" cx="124.8" cy="216" rx="3.8" ry="3.8"/>
	<ellipse transform="matrix(0.395 -0.9187 0.9187 0.395 -113.8476 420.271)" class="st5" cx="262.2" cy="296.6" rx="3.8" ry="3.8"/>
	<g>
		<path d="M283.8,253.1c0,0-0.2,0.4-0.7,1.2c-0.5,0.8-1.1,1.9-2,3.4c-1.8,2.9-4.7,7.1-9.2,11.8c-4.5,4.7-10.5,9.8-18.4,14.1
			c-7.9,4.3-17.6,7.8-28.6,9c-5.5,0.6-11.3,0.6-17.2-0.1c-5.9-0.7-12-2.1-17.9-4.4c-5.9-2.3-11.7-5.3-17.1-9.2
			c-2.7-1.9-5.3-4.1-7.8-6.4c-2.4-2.3-4.8-4.8-7-7.5c-8.7-10.7-14.7-24.2-16.5-38.6c-1.8-14.4,0.6-29.5,7.1-42.7
			c6.4-13.3,16.8-24.5,29.3-31.9c12.4-7.4,26.8-11,40.5-10.7c6.9,0.1,13.6,1.2,20,3.1c6.3,1.9,12.3,4.6,17.7,7.8
			c5.4,3.3,10.2,7.1,14.4,11.3c4.2,4.2,7.7,8.8,10.6,13.4c5.8,9.4,9,19.1,10.5,27.9c1.4,8.8,1.1,16.7,0.2,23
			c-0.9,6.4-2.4,11.2-3.6,14.4c-0.5,1.6-1.1,2.8-1.4,3.7c-0.3,0.8-0.5,1.2-0.5,1.2s0.2-0.4,0.5-1.2c0.3-0.8,0.9-2,1.4-3.7
			c1.2-3.2,2.6-8.1,3.6-14.4c0.9-6.3,1.2-14.2-0.2-23c-1.4-8.8-4.7-18.5-10.5-27.9c-2.9-4.6-6.5-9.2-10.6-13.4
			c-4.2-4.2-9-8-14.4-11.3c-5.4-3.2-11.3-5.9-17.7-7.8c-6.3-1.8-13-3-19.9-3.1c-13.7-0.3-28,3.3-40.3,10.8
			c-12.4,7.4-22.7,18.5-29,31.7c-6.4,13.1-8.8,28.1-7,42.4c1.8,14.3,7.8,27.7,16.4,38.3c2.2,2.7,4.5,5.1,6.9,7.4
			c2.5,2.2,5,4.4,7.7,6.3c5.3,3.8,11.1,6.8,17,9c5.8,2.3,11.8,3.7,17.7,4.3c5.9,0.7,11.6,0.7,17,0.1c10.9-1.2,20.5-4.6,28.3-8.9
			c7.8-4.3,13.8-9.4,18.1-14c4.4-4.6,7.3-8.8,9.1-11.6c0.9-1.4,1.5-2.6,2-3.4c0.4-0.8,0.7-1.2,0.7-1.2L283.8,253.1z"/>
	</g>
	
		<ellipse transform="matrix(0.2794 -0.9602 0.9602 0.2794 24.5533 413.1503)" class="st5" cx="287.5" cy="190.2" rx="3.2" ry="3.2"/>
	
		<ellipse transform="matrix(0.8765 -0.4814 0.4814 0.8765 -61.8593 97.0928)" class="st5" cx="158.3" cy="169.1" rx="3.2" ry="3.2"/>
	
		<ellipse transform="matrix(0.8765 -0.4814 0.4814 0.8765 -114.7408 135.796)" class="st5" cx="207.3" cy="291.5" rx="3.2" ry="3.2"/>
	<g>
		<path d="M387.2,253.1c0,0-0.2,1-0.7,3c-0.2,1-0.5,2.2-0.8,3.7c-0.2,0.7-0.3,1.5-0.5,2.4c-0.2,0.8-0.5,1.8-0.7,2.7
			c-2,7.7-5.4,18.9-12,32.2c-0.8,1.7-1.7,3.4-2.6,5.1c-1,1.7-2,3.4-3,5.2c-0.5,0.9-1,1.8-1.6,2.7c-0.6,0.9-1.1,1.8-1.7,2.7
			c-1.2,1.8-2.3,3.7-3.6,5.5c-5,7.4-11.1,15-18.3,22.4c-14.3,14.9-33.4,29.1-56.8,39.2c-11.7,5-24.5,8.9-38,11.3
			c-13.5,2.5-27.8,3.2-42.3,2.2l-2.7-0.2l-2.7-0.3c-1.8-0.2-3.7-0.4-5.5-0.6c-1.8-0.2-3.7-0.6-5.5-0.9c-1.8-0.3-3.7-0.6-5.5-1
			c-3.6-0.8-7.3-1.5-11-2.6c-1.8-0.5-3.7-1-5.5-1.5c-1.8-0.6-3.6-1.2-5.4-1.8c-1.8-0.6-3.6-1.3-5.4-2c-1.8-0.7-3.6-1.3-5.4-2.1
			c-3.5-1.6-7.1-3-10.6-4.9c-7-3.4-13.8-7.5-20.4-11.9c-1.6-1.1-3.3-2.3-4.9-3.4c-1.6-1.2-3.2-2.4-4.7-3.7l-2.4-1.8l-2.3-2
			c-1.5-1.3-3.1-2.6-4.6-4c-6-5.5-11.5-11.4-16.8-17.6c-5.2-6.3-10-13-14.3-20.1c-4.3-7.1-8.1-14.5-11.5-22.1
			c-3.2-7.7-6-15.6-8.2-23.7c-2.1-8.1-3.7-16.4-4.7-24.8c-0.9-8.4-1.3-16.9-1-25.3c0-2.1,0.2-4.2,0.4-6.3l0.2-3.2l0.4-3.2
			c0.3-2.1,0.4-4.2,0.7-6.3l1-6.3c1.6-8.3,3.5-16.6,6.3-24.6l1-3l1.1-3c0.8-2,1.5-4,2.3-5.9l2.6-5.8c0.4-1,0.9-1.9,1.4-2.9l1.4-2.8
			l1.4-2.8c0.5-0.9,1-1.8,1.5-2.8c1.1-1.8,2-3.7,3.1-5.5l3.4-5.3l0.8-1.3l0.9-1.3l1.8-2.6l1.8-2.6c0.6-0.9,1.3-1.7,1.9-2.5
			c1.3-1.6,2.6-3.3,3.9-4.9l4.1-4.8l1-1.2l1.1-1.1l2.2-2.3l2.2-2.3c0.7-0.8,1.5-1.4,2.2-2.2c1.5-1.4,3-2.9,4.5-4.3
			c1.6-1.4,3.1-2.7,4.7-4.1l1.2-1l1.2-1l2.4-1.9l2.4-1.9c0.8-0.6,1.7-1.2,2.5-1.8c1.7-1.2,3.3-2.4,5-3.6c3.5-2.2,6.9-4.5,10.4-6.5
			c3.5-2.1,7.2-3.9,10.8-5.8c3.7-1.7,7.3-3.5,11.1-4.9l2.8-1.1l1.4-0.6l1.4-0.5c1.9-0.7,3.8-1.3,5.7-2c1.9-0.6,3.8-1.1,5.7-1.7
			l2.9-0.8c1-0.3,1.9-0.5,2.9-0.7c1.9-0.5,3.9-0.9,5.8-1.4c1.9-0.4,3.9-0.7,5.8-1.1c1.9-0.4,3.9-0.7,5.8-0.9
			c1.9-0.2,3.9-0.6,5.8-0.8c3.9-0.3,7.7-0.8,11.6-0.8l2.9-0.1c1,0,1.9-0.1,2.9,0c1.9,0,3.8,0,5.7,0.1c1.9,0,3.8,0.2,5.7,0.3
			c1.9,0.1,3.8,0.2,5.7,0.4c3.7,0.5,7.5,0.7,11.2,1.4c1.8,0.3,3.7,0.6,5.5,0.9c1.8,0.4,3.6,0.8,5.4,1.2l2.7,0.6
			c0.9,0.2,1.8,0.5,2.7,0.7c1.8,0.5,3.5,1,5.3,1.4c14,4.1,27,9.9,38.8,16.7c11.8,6.9,22.3,15.1,31.6,23.8
			c9.2,8.7,17.1,18.1,23.6,27.7c6.5,9.6,11.8,19.2,15.9,28.7c4.2,9.4,7.1,18.7,9.3,27.3c2.1,8.7,3.6,16.8,4.2,24.1
			c1.5,14.7,0.9,26.4,0.1,34.3c-0.3,4-0.9,7-1.1,9c-0.3,2-0.4,3.1-0.4,3.1s0.1-1,0.4-3.1c0.3-2,0.8-5,1.1-9
			c0.8-7.9,1.4-19.6-0.1-34.3c-0.7-7.4-2.1-15.5-4.2-24.1c-2.1-8.7-5.1-17.9-9.3-27.3c-4.1-9.4-9.4-19.1-15.9-28.7
			c-6.5-9.5-14.4-18.9-23.6-27.6c-9.2-8.7-19.7-16.8-31.6-23.7c-11.8-6.8-24.8-12.6-38.8-16.7c-1.8-0.5-3.5-0.9-5.3-1.4
			c-0.9-0.2-1.8-0.5-2.7-0.7l-2.7-0.6c-1.8-0.4-3.6-0.8-5.4-1.2c-1.8-0.3-3.7-0.6-5.5-0.9c-3.7-0.7-7.4-1-11.2-1.4
			c-1.9-0.2-3.8-0.3-5.7-0.4c-1.9-0.1-3.8-0.3-5.7-0.3c-1.9,0-3.8,0-5.7-0.1c-1,0-1.9,0-2.9,0l-2.9,0.1c-3.9,0.1-7.7,0.5-11.6,0.8
			c-1.9,0.2-3.9,0.5-5.8,0.8c-1.9,0.3-3.9,0.5-5.8,0.9c-1.9,0.4-3.9,0.7-5.8,1.1c-1.9,0.5-3.8,0.9-5.8,1.4c-1,0.2-1.9,0.5-2.9,0.7
			l-2.9,0.8c-1.9,0.6-3.8,1.1-5.7,1.7c-1.9,0.7-3.8,1.3-5.7,2l-1.4,0.5l-1.4,0.6l-2.8,1.1c-3.8,1.4-7.4,3.2-11.1,4.9
			c-3.6,1.9-7.3,3.6-10.7,5.8c-3.6,2-7,4.3-10.4,6.5c-1.7,1.2-3.3,2.4-5,3.6c-0.8,0.6-1.7,1.2-2.5,1.8l-2.4,1.9l-2.4,1.9l-1.2,1
			l-1.2,1c-1.6,1.4-3.1,2.7-4.7,4.1c-1.5,1.4-3,2.9-4.5,4.3c-0.7,0.7-1.5,1.4-2.2,2.2l-2.1,2.3l-2.1,2.3l-1.1,1.1l-1,1.2l-4.1,4.7
			c-1.3,1.6-2.6,3.3-3.9,4.9c-0.6,0.8-1.3,1.6-1.9,2.5l-1.8,2.6l-1.8,2.6l-0.9,1.3l-0.8,1.3l-3.4,5.3c-1.1,1.8-2.1,3.6-3.1,5.5
			c-0.5,0.9-1,1.8-1.5,2.8l-1.4,2.8l-1.4,2.8c-0.5,0.9-1,1.9-1.4,2.9l-2.5,5.8c-0.8,1.9-1.5,3.9-2.3,5.9l-1.1,3l-1,3
			c-2.8,8-4.7,16.2-6.3,24.5l-1,6.3c-0.3,2.1-0.5,4.2-0.7,6.3l-0.3,3.1l-0.2,3.2c-0.1,2.1-0.3,4.2-0.3,6.3
			c-0.3,8.4,0.2,16.9,1.1,25.2c1,8.4,2.6,16.6,4.7,24.7c2.2,8.1,5,16,8.2,23.6c3.3,7.6,7.2,15,11.4,22c4.4,7,9.2,13.7,14.3,20
			c5.3,6.2,10.8,12.1,16.8,17.5c1.5,1.4,3,2.6,4.5,3.9l2.3,2l2.4,1.8c1.6,1.2,3.1,2.5,4.7,3.6c1.6,1.1,3.2,2.3,4.9,3.4
			c6.6,4.4,13.3,8.5,20.3,11.9c3.4,1.8,7,3.3,10.5,4.8c1.8,0.7,3.6,1.4,5.4,2.1c1.8,0.7,3.6,1.4,5.4,1.9c14.4,4.8,29.2,7.9,43.7,8.8
			c14.5,1,28.7,0.3,42.1-2.2c13.4-2.4,26.1-6.3,37.8-11.3c23.3-10,42.2-24.3,56.4-39.1c7.1-7.4,13.2-14.9,18.2-22.3
			c1.3-1.8,2.4-3.7,3.6-5.5c0.6-0.9,1.1-1.8,1.7-2.7c0.6-0.9,1-1.8,1.5-2.7c1-1.8,2-3.5,2.9-5.2c0.9-1.7,1.7-3.4,2.5-5.1
			c6.5-13.2,10-24.4,11.9-32.1c0.3-1,0.5-1.9,0.7-2.7c0.2-0.8,0.4-1.6,0.5-2.4c0.3-1.5,0.6-2.7,0.8-3.7c0.4-2,0.7-3,0.7-3
			L387.2,253.1z"/>
	</g>
	<ellipse transform="matrix(0.9793 -0.2027 0.2027 0.9793 -11.7719 69.3915)" class="st5" cx="333" cy="92.2" rx="7.2" ry="7.2"/>
	
		<ellipse transform="matrix(0.5491 -0.8357 0.8357 0.5491 -136.5053 124.7592)" class="st5" cx="47.4" cy="188.9" rx="7.2" ry="7.2"/>
	
		<ellipse transform="matrix(0.5491 -0.8357 0.8357 0.5491 -196.5569 403.101)" class="st5" cx="275.3" cy="383.7" rx="7.2" ry="7.2"/>
	<polygon class="st3" points="368.6,184.5 368.5,184.1 368.3,184.2 	"/>
	<g>
		<rect x="269.5" y="230.1" class="st2" width="25.7" height="16.7"/>
		<text transform="matrix(1 0 0 1 269.4756 245.3618)" class="st6 st7 st8">m</text>
	</g>
	<rect x="290.9" y="230.1" class="st2" width="12.9" height="21.6"/>
	<text transform="matrix(1 0 0 1 290.8904 245.3621)" class="st6 st7 st8">y</text>
	<rect x="310.3" y="230.1" class="st2" width="18.8" height="16.6"/>
	<text transform="matrix(1 0 0 1 310.325 245.3617)" class="st7 st8">s</text>
	<rect x="324.1" y="230.1" class="st2" width="15.4" height="16.5"/>
	<text transform="matrix(1 0 0 1 324.116 245.3617)" class="st7 st8">o</text>
	<rect x="341.5" y="230.1" class="st2" width="16.8" height="16.4"/>
	<text transform="matrix(1 0 0 1 341.5042 245.3621)" class="st6 st7 st8">n</text>
	<rect x="356.3" y="230.1" class="st2" width="19.1" height="21"/>
	<text transform="matrix(1 0 0 1 356.2542 245.3621)" class="st7 st8">g</text>
	<rect x="376" y="230.1" class="st2" width="18.1" height="18.2"/>
	<text transform="matrix(1 0 0 1 375.9807 245.3618)" class="st6 st7 st8">s</text>
</g>
<g id="Calque_3">
</g>
<g id="Calque_2">
</g>
</svg>
