<?xml version="1.0" encoding="utf-8"?>
<!-- Generator: Adobe Illustrator 19.2.0, SVG Export Plug-In . SVG Version: 6.00 Build 0)  -->
<svg version="1.1" xmlns="http://www.w3.org/2000/svg" xmlns:xlink="http://www.w3.org/1999/xlink" x="0px" y="0px"
   height="21px" viewBox="0 0 20 20" width="21px" style="enable-background:new 0 0 434.5 432;" xml:space="preserve">
  <path style="fill:white" d="M 5.4849389,17.717112 C 3.5952252,17.132245 3.4625792,16.057106 4.8574276,12.630881 6.0230317,9.7677632 6.0238699,10.158017 4.8489516,8.6797395 3.5502491,7.0457306 3.4956481,6.9225935 3.8099532,6.336539 4.3127076,5.3991009 5.1113932,5.5566149 6.102323,6.7886319 6.9189429,7.8039292 6.7309364,8.0182799 8.1836537,4.4156591 9.6075082,0.88460723 9.7671362,0.62551434 10.712158,0.31162866 c 1.281638,-0.425692 2.286118,0.19542161 2.964417,1.83302604 2.941222,7.1009667 5.264536,13.0087833 5.264536,13.3868723 0,0.845341 -0.425322,1.558956 -1.177487,1.975612 -0.435699,0.241357 -11.5624898,0.43163 -12.2786727,0.209974 z m 4.7340901,-2.186869 c -0.0013,-0.175495 -2.573776,-3.343139 -2.7148823,-3.343139 -0.1255441,0 -1.4372534,3.044883 -1.4372534,3.336317 0,0.0892 0.4023863,0.110642 2.0764836,0.110642 1.6062579,0 2.0762951,-0.02353 2.0756521,-0.10382 z m 6.480256,-0.04153 c 0.0016,-0.303509 -5.189232,-12.9787574 -5.30642,-12.9573752 -0.122519,0.022359 -2.9104331,6.7953606 -2.9147431,7.0811236 -0.00157,0.094981 0.8921188,1.2884756 2.0832051,2.7824916 1.147143,1.438891 2.17997,2.756328 2.295171,2.927641 0.24334,0.361851 3.840879,0.517371 3.842787,0.166119 z"/>
</svg>
